<svg width="343" height="225" viewBox="0 0 343 225" fill="none" xmlns="http://www.w3.org/2000/svg">
<path d="M78.2363 170.422L77.392 212.104L3.38837 212.26L3.28125 170.016L78.2363 170.422Z" fill="#EBEBEB"/>
<path d="M34.6403 212.145C34.5395 212.145 34.6403 202.839 34.886 191.36C35.1318 179.881 35.3838 170.58 35.4783 170.586C35.5728 170.592 35.4783 179.887 35.2326 191.365C34.9869 202.844 34.7348 212.145 34.6403 212.145Z" fill="#E0E0E0"/>
<path d="M3.38672 212.265C3.47645 212.113 3.57749 211.966 3.68916 211.825L4.60278 210.606L8.03675 206.15L19.4602 191.475C23.9212 185.755 27.9349 180.564 30.8018 176.777C32.2384 174.889 33.3725 173.341 34.1538 172.277C34.5256 171.759 34.8217 171.341 35.0422 171.04C35.1387 170.891 35.2505 170.749 35.3762 170.617C35.2953 170.772 35.2049 170.922 35.1053 171.068L34.2672 172.338C33.5237 173.452 32.4148 174.989 31.0097 176.9C28.1995 180.715 24.2174 185.928 19.7501 191.653C15.2827 197.378 11.2124 202.524 8.24468 206.245L4.7225 210.65L3.75217 211.837C3.64481 211.989 3.52253 212.132 3.38672 212.265Z" fill="#E0E0E0"/>
<path d="M34.6404 212.145C34.5125 212.017 34.3986 211.879 34.3001 211.733L33.3802 210.524L30.0344 206.069L18.9323 191.41C14.5784 185.69 10.6719 180.494 7.89951 176.701C6.51962 174.802 5.37917 173.259 4.65457 172.19L3.79135 170.948C3.68281 170.809 3.58795 170.661 3.50781 170.508C3.63435 170.634 3.74819 170.77 3.84806 170.914L4.76798 172.123C5.57449 173.198 6.70865 174.718 8.10744 176.579L19.2159 191.237C23.5698 196.957 27.47 202.153 30.2424 205.952C31.6286 207.845 32.7627 209.388 33.4936 210.463L34.3568 211.699C34.4633 211.842 34.5581 211.991 34.6404 212.145Z" fill="#E0E0E0"/>
<path d="M42.2787 207.413L54.1602 207.602L54.2039 205.452L42.3224 205.263L42.2787 207.413Z" fill="#E0E0E0"/>
<path d="M42.8828 203.531C44.8132 203.365 46.7533 203.304 48.6922 203.347C50.6318 203.287 52.5738 203.328 54.5079 203.47C52.5772 203.632 50.6374 203.694 48.6985 203.654C46.7589 203.714 44.817 203.673 42.8828 203.531Z" fill="#E0E0E0"/>
<path d="M58.6799 170.188L58.3522 186.279L55.7878 184.48L52.4609 186.184L52.7886 170.094L58.6799 170.188Z" fill="#E0E0E0"/>
<path d="M69.3579 138.851L68.7152 170.664L12.2406 170.781L12.1523 138.539L69.3579 138.851Z" fill="#F5F5F5"/>
<path d="M36.0915 170.694C36.0159 170.694 36.0915 163.593 36.2805 154.833C36.4695 146.072 36.6586 138.977 36.7342 138.977C36.8098 138.977 36.7342 146.078 36.5451 154.838C36.3561 163.599 36.1608 170.694 36.0915 170.694Z" fill="#E0E0E0"/>
<path d="M12.2422 170.784C12.3079 170.667 12.3837 170.556 12.469 170.45C12.6454 170.219 12.8786 169.907 13.1684 169.514C13.7985 168.695 14.6932 167.537 15.7896 166.116C18.0327 163.237 21.1075 159.294 24.51 154.939C27.9124 150.583 30.9746 146.584 33.161 143.722C34.2511 142.274 35.1206 141.099 35.7192 140.285L36.3934 139.339C36.4712 139.227 36.5553 139.119 36.6454 139.016C36.5861 139.137 36.5166 139.254 36.4375 139.367L35.8074 140.33C35.2403 141.16 34.396 142.357 33.3249 143.811C31.1763 146.724 28.1393 150.706 24.7305 155.072C21.3217 159.439 18.2091 163.365 15.9471 166.211L13.2629 169.553C12.9479 169.932 12.7022 170.238 12.5194 170.461C12.4377 170.575 12.345 170.683 12.2422 170.784Z" fill="#E0E0E0"/>
<path d="M36.0882 170.695C35.9884 170.6 35.8997 170.495 35.8235 170.384L35.1241 169.459C34.494 168.64 33.6434 167.482 32.5723 166.062L24.0787 154.873C20.7582 150.512 17.7778 146.519 15.6608 143.645C14.6085 142.197 13.7705 141.022 13.1845 140.203L12.5544 139.256C12.4095 139.039 12.3339 138.922 12.3402 138.922C12.4384 139.018 12.525 139.122 12.5985 139.234L13.3042 140.153C13.9343 140.977 14.7849 142.13 15.8246 143.556L24.3055 154.745C27.6261 159.105 30.6064 163.071 32.7172 165.967C33.7757 167.415 34.6074 168.596 35.1997 169.415L35.8613 170.356C35.9458 170.464 36.0216 170.578 36.0882 170.695Z" fill="#E0E0E0"/>
<path d="M42.3393 166.855L51.4062 167.016L51.4434 165.373L42.3765 165.212L42.3393 166.855Z" fill="#E0E0E0"/>
<path d="M42.3516 164.111C43.8175 163.989 45.2902 163.942 46.7622 163.972C48.2332 163.929 49.7058 163.96 51.1728 164.066C49.7071 164.192 48.2342 164.238 46.7622 164.206C45.2912 164.255 43.8181 164.223 42.3516 164.111Z" fill="#EBEBEB"/>
<path d="M57.9399 138.674L57.6878 150.955L55.7346 149.579L53.1953 150.882L53.441 138.602L57.9399 138.674Z" fill="#E0E0E0"/>
<path d="M75.4838 209.256C74.822 207.521 73.583 206.004 71.9291 204.903C70.2753 203.802 68.2836 203.168 66.2152 203.085L64.4825 118.791H72.8249V120.05H74.3938V117.031H61.4329C61.4329 117.031 62.9766 179.22 64.0982 203.168C63.5407 203.248 62.991 203.365 62.4536 203.519C60.3812 204.136 58.5852 205.32 57.3264 206.901C56.0675 208.481 55.4114 210.375 55.4534 212.308L25.9023 211.962L26.7467 215.393L55.8755 214.686C55.9133 214.803 55.9448 214.92 55.989 215.042C56.396 216.2 57.061 217.275 57.9447 218.202C58.8285 219.13 59.9131 219.891 61.1349 220.443C62.3566 220.995 63.6908 221.325 65.059 221.414C66.4271 221.503 67.8016 221.349 69.1016 220.962C70.4016 220.574 71.6009 219.961 72.6288 219.158C73.6567 218.355 74.4926 217.378 75.0872 216.286C75.6819 215.193 76.0233 214.006 76.0914 212.795C76.1595 211.584 75.9529 210.373 75.4838 209.233V209.256Z" fill="#E0E0E0"/>
<path d="M31.5664 220.412H33.129L36.1408 215.188L33.652 215.249L31.5664 220.412Z" fill="#E0E0E0"/>
<path d="M273.897 0H244.309V7.22913H273.897V0Z" fill="#EBEBEB"/>
<path d="M299.194 153.023H269.605V160.253H299.194V153.023Z" fill="#EBEBEB"/>
<path d="M266.386 7.22656H236.797V14.4557H266.386V7.22656Z" fill="#F5F5F5"/>
<path d="M280.361 160.484H259.102V167.714H280.361V160.484Z" fill="#F5F5F5"/>
<path d="M155.529 24.0547H91.7891V139.27H155.529V24.0547Z" fill="#EBEBEB"/>
<path d="M123.635 24.0547C123.635 24.0547 110.567 76.3182 91.7656 79.8883C91.7656 79.8883 99.3267 116.552 100.051 139.27H91.7908V24.0547H123.635Z" fill="#E0E0E0"/>
<path d="M123.875 24.0547C123.875 24.0547 136.943 76.3182 155.77 79.8883C155.77 79.8883 148.209 116.552 147.491 139.27H155.77V24.0547H123.875Z" fill="#E0E0E0"/>
<path d="M124.825 23.8281H122.5V139.266H124.825V23.8281Z" fill="#FAFAFA"/>
<path d="M107.109 23.8281H106.535V139.266H107.109V23.8281Z" fill="#FAFAFA"/>
<path d="M141.515 23.8281H140.941V139.266H141.515V23.8281Z" fill="#FAFAFA"/>
<path d="M155.529 52.4609V52.9232L91.7891 53.1516V52.6893L155.529 52.4609Z" fill="#FAFAFA"/>
<path d="M155.529 109.781V110.232L91.7891 110.461V110.01L155.529 109.781Z" fill="#FAFAFA"/>
<path d="M155.529 80.5078H91.7891V82.4293H155.529V80.5078Z" fill="#FAFAFA"/>
<path d="M156.476 140.104H90.8711V23.2188H156.476V140.104ZM92.7362 138.434H154.585V24.8896H92.7614L92.7362 138.434Z" fill="#F5F5F5"/>
<path d="M342.052 24.0547H278.312V139.27H342.052V24.0547Z" fill="#EBEBEB"/>
<path d="M310.182 24.0547C310.182 24.0547 297.114 76.3182 278.312 79.8883C278.312 79.8883 285.874 116.552 286.592 139.27H278.312V24.0547H310.182Z" fill="#E0E0E0"/>
<path d="M310.398 24.0547C310.398 24.0547 323.466 76.3182 342.275 79.8883C342.275 79.8883 334.713 116.552 333.989 139.27H342.275V24.0547H310.398Z" fill="#E0E0E0"/>
<path d="M311.345 23.8281H309.02V139.266H311.345V23.8281Z" fill="#FAFAFA"/>
<path d="M293.624 23.8281H293.051V139.266H293.624V23.8281Z" fill="#FAFAFA"/>
<path d="M328.034 23.8281H327.461V139.266H328.034V23.8281Z" fill="#FAFAFA"/>
<path d="M342.052 52.4609V52.9232L278.312 53.1516V52.6893L342.052 52.4609Z" fill="#FAFAFA"/>
<path d="M342.052 109.781V110.232L278.312 110.461V110.01L342.052 109.781Z" fill="#FAFAFA"/>
<path d="M342.052 80.5078H278.312V82.4293H342.052V80.5078Z" fill="#FAFAFA"/>
<path d="M342.998 140.104H277.375V23.2188H342.998V140.104ZM279.259 138.434H341.108V24.8896H279.265L279.259 138.434Z" fill="#F5F5F5"/>
<path d="M143.853 203.901C141.572 202.955 139.008 202.68 136.537 203.116C135.208 203.311 133.822 203.673 132.921 204.541C132.02 205.41 131.843 206.975 132.883 207.733C133.551 208.135 134.359 208.317 135.164 208.245C137.098 208.245 139.241 207.922 140.791 208.952C141.673 209.543 142.259 210.517 143.311 210.807C143.839 210.912 144.392 210.863 144.887 210.669C145.382 210.474 145.792 210.144 146.058 209.727C146.557 208.867 146.668 207.871 146.367 206.942C146.24 206.298 145.947 205.689 145.511 205.162C145.075 204.635 144.508 204.203 143.853 203.901Z" fill="#EBEBEB"/>
<path d="M148.958 195.195C147.597 196.916 144.95 196.348 143.722 195.296C142.493 194.243 141.976 192.728 141.504 191.28C140.426 187.938 139.336 184.491 140.143 181.116C140.329 180.085 140.837 179.12 141.611 178.331C141.999 177.947 142.494 177.659 143.046 177.496C143.599 177.333 144.19 177.3 144.761 177.401C146.091 177.713 146.922 178.866 147.521 179.969C149.289 183.211 150.215 186.762 150.23 190.361C150.23 192.032 150.016 193.792 148.97 195.173" fill="#EBEBEB"/>
<path d="M152.695 197.663C151.996 196.855 151.531 195.909 151.34 194.906C151.149 193.903 151.238 192.875 151.598 191.909C152.343 189.978 153.677 188.266 155.455 186.964C157.477 185.375 159.832 184.151 162.386 183.36C163.372 183.011 164.431 182.853 165.492 182.898C166.021 182.925 166.535 183.066 166.989 183.309C167.442 183.551 167.822 183.888 168.094 184.29C168.825 185.516 168.126 187.003 167.37 188.189C166.045 190.335 164.528 192.384 162.833 194.315C161.478 195.864 159.922 197.39 157.849 198.091C155.776 198.793 153.621 198.71 152.525 197.44" fill="#EBEBEB"/>
<path d="M149.052 221.13C148.975 220.875 148.933 220.613 148.926 220.35C148.863 219.793 148.788 219.063 148.693 218.217C148.598 217.37 148.428 216.251 148.151 215.087C147.84 213.831 147.418 212.598 146.891 211.4C146.362 210.202 145.643 209.077 144.755 208.058C144.036 207.23 143.117 206.555 142.064 206.081C141.349 205.766 140.581 205.555 139.79 205.457C139.494 205.448 139.2 205.409 138.914 205.34C139.212 205.314 139.511 205.314 139.809 205.34C140.628 205.398 141.429 205.586 142.172 205.897C143.284 206.359 144.259 207.043 145.02 207.897C145.942 208.928 146.685 210.075 147.225 211.3C147.765 212.517 148.187 213.773 148.485 215.053C148.712 216.099 148.87 217.155 148.958 218.217C149.033 219.125 149.058 219.854 149.071 220.361C149.093 220.617 149.087 220.875 149.052 221.13Z" fill="#E0E0E0"/>
<path d="M148.883 219.482C148.868 219.362 148.868 219.241 148.883 219.12C148.883 218.847 148.883 218.508 148.883 218.084C148.883 217.188 148.883 215.857 148.833 214.275C148.738 211.061 148.429 206.628 147.825 201.749C147.22 196.87 146.407 192.482 145.67 189.335C145.493 188.544 145.323 187.831 145.153 187.213C144.983 186.595 144.863 186.049 144.737 185.615C144.611 185.18 144.536 184.874 144.46 184.606C144.421 184.491 144.397 184.371 144.391 184.25C144.449 184.359 144.496 184.473 144.529 184.59C144.624 184.851 144.731 185.18 144.869 185.587C145.008 185.993 145.178 186.55 145.355 187.168C145.531 187.787 145.733 188.499 145.922 189.285C146.924 193.388 147.679 197.536 148.184 201.71C148.814 206.6 149.066 211.05 149.091 214.275C149.091 215.884 149.091 217.188 149.022 218.09C149.022 218.508 148.971 218.853 148.952 219.126C148.947 219.247 148.924 219.367 148.883 219.482Z" fill="#E0E0E0"/>
<path d="M148.836 210.905C148.805 210.545 148.805 210.184 148.836 209.824C148.88 209.128 148.987 208.12 149.208 206.889C149.478 205.449 149.838 204.023 150.285 202.618C150.824 200.892 151.5 199.202 152.308 197.561C153.723 194.539 155.749 191.77 158.288 189.39C158.724 188.982 159.189 188.599 159.68 188.243C159.894 188.081 160.083 187.92 160.279 187.797L160.82 187.463C161.146 187.251 161.491 187.065 161.854 186.906C160.663 187.729 159.532 188.618 158.47 189.568C156.031 191.972 154.072 194.726 152.68 197.711C151.881 199.341 151.204 201.015 150.651 202.723C150.189 204.115 149.806 205.526 149.504 206.951C149.246 208.17 149.101 209.178 149.013 209.858C148.987 210.211 148.928 210.561 148.836 210.905Z" fill="#E0E0E0"/>
<path d="M333.144 221.543C333.144 221.621 261.906 221.688 174.047 221.688C86.1876 221.688 14.9375 221.621 14.9375 221.543C14.9375 221.465 86.1372 221.398 174.047 221.398C261.956 221.398 333.144 221.465 333.144 221.543Z" fill="#263238"/>
<path d="M288.592 203.363C279.43 198.061 277.105 187.913 277.206 178.746C277.206 177.214 276.992 175.61 277.786 174.252C278.58 172.893 280.501 171.935 282.089 172.542C283.406 173.049 283.979 174.357 284.767 175.438C285.785 176.881 287.244 178.039 288.976 178.779C290.104 179.264 291.496 179.543 292.58 178.991C294.073 178.228 294.199 176.401 294.149 174.881C294.048 172.048 293.95 169.215 293.853 166.382C293.703 164.864 293.837 163.334 294.25 161.854C294.754 160.4 295.913 159.03 297.564 158.59C299.215 158.15 301.282 158.941 301.672 160.423C301.755 161.051 301.791 161.684 301.779 162.316C301.778 162.632 301.882 162.942 302.08 163.206C302.277 163.469 302.558 163.675 302.888 163.798C303.594 163.965 304.275 163.519 304.779 163.063C306.537 161.486 307.702 159.481 308.792 157.493C309.882 155.505 310.928 153.461 312.516 151.757C314.104 150.052 316.297 148.671 318.817 148.493C321.337 148.315 324.009 149.607 324.696 151.729C325.382 153.851 324.015 156.067 322.503 157.855C320.254 160.473 317.591 162.792 314.595 164.739C314.008 165.035 313.544 165.49 313.272 166.037C312.926 167.061 314.053 168.047 315.206 168.354C316.517 168.704 317.922 168.554 319.289 168.665C320.657 168.777 322.137 169.267 322.686 170.381C323.442 171.918 321.999 173.578 320.562 174.68C317.674 176.88 314.385 178.629 310.834 179.854C309.574 180.289 308.219 180.679 307.211 181.486C306.203 182.294 305.61 183.675 306.266 184.733C306.921 185.791 308.534 186.098 309.87 185.847C311.205 185.596 312.39 184.939 313.65 184.494C316.019 183.653 319.119 183.731 320.701 185.507C321.187 186.116 321.505 186.818 321.627 187.555C321.75 188.292 321.674 189.045 321.407 189.751C320.866 191.16 320.009 192.458 318.886 193.566C315.181 197.632 310.328 200.761 304.816 202.639C299.303 204.438 294.168 205.006 288.592 203.357" fill="url(#paint0_linear_2804_15531)"/>
<path d="M322.114 149.703C322.114 149.703 322.064 149.759 321.95 149.853L321.446 150.266C320.999 150.628 320.337 151.162 319.512 151.87C317.17 153.858 315.003 156.001 313.028 158.28C311.768 159.717 310.464 161.343 309.103 163.109C307.742 164.874 306.299 166.773 304.875 168.817C303.364 170.946 301.988 173.147 300.754 175.412C300.124 176.587 299.551 177.818 298.971 179.071C298.391 180.324 297.812 181.594 297.226 182.88C294.976 187.701 293.036 192.63 291.416 197.645C290.117 201.745 289.26 205.944 288.858 210.187C288.6 213.048 288.625 215.924 288.934 218.781C289.053 219.789 289.167 220.574 289.261 221.103C289.299 221.356 289.331 221.556 289.356 221.705C289.366 221.773 289.366 221.842 289.356 221.911C289.329 221.846 289.31 221.779 289.299 221.71C289.268 221.56 289.224 221.365 289.173 221.109C289.053 220.585 288.921 219.8 288.783 218.792C288.424 215.929 288.365 213.043 288.606 210.17C288.986 205.911 289.831 201.694 291.126 197.578C292.734 192.549 294.669 187.606 296.923 182.774C297.509 181.488 298.095 180.218 298.669 178.959C299.242 177.701 299.815 176.47 300.464 175.289C301.71 173.02 303.096 170.813 304.617 168.678C306.053 166.634 307.502 164.741 308.876 162.975C310.25 161.21 311.566 159.589 312.839 158.158C314.838 155.885 317.037 153.756 319.417 151.792C320.262 151.095 320.936 150.572 321.396 150.227L321.925 149.831L322.114 149.703Z" fill="#263238"/>
<path d="M300.57 175.262C300.483 175.053 300.419 174.836 300.381 174.616C300.28 174.198 300.154 173.586 300.009 172.834C299.719 171.324 299.379 169.23 299.064 166.919C298.749 164.608 298.377 162.519 298.062 161.015C297.905 160.264 297.772 159.662 297.678 159.239C297.603 159.035 297.557 158.823 297.539 158.609C297.64 158.814 297.718 159.026 297.772 159.244C297.911 159.656 298.075 160.258 298.257 161.004C298.629 162.502 299.02 164.591 299.36 166.908L300.211 172.834C300.318 173.541 300.406 174.143 300.482 174.627C300.54 174.835 300.569 175.048 300.57 175.262Z" fill="#263238"/>
<path d="M322.882 171.139C322.589 171.198 322.292 171.235 321.993 171.25C321.42 171.306 320.588 171.384 319.567 171.512C317.52 171.746 314.703 172.158 311.622 172.737C308.541 173.317 305.775 173.94 303.79 174.447C302.795 174.692 301.994 174.909 301.44 175.06C301.158 175.152 300.867 175.221 300.57 175.266C300.835 175.138 301.114 175.034 301.402 174.954C301.944 174.776 302.732 174.525 303.721 174.252C305.693 173.695 308.459 173.038 311.553 172.459C314.19 171.955 316.854 171.572 319.536 171.312C320.569 171.211 321.426 171.161 321.981 171.139C322.28 171.11 322.582 171.11 322.882 171.139Z" fill="#263238"/>
<path d="M291.407 197.195C291.344 197.122 291.292 197.044 291.249 196.961L290.846 196.259C290.499 195.652 290.021 194.761 289.453 193.653C288.307 191.425 286.839 188.328 285.27 184.881C283.701 181.433 282.27 178.32 281.18 176.087L279.895 173.441L279.549 172.723C279.501 172.64 279.465 172.552 279.441 172.461C279.441 172.461 279.511 172.539 279.605 172.695C279.7 172.851 279.845 173.118 280.008 173.397C280.355 174.004 280.828 174.895 281.401 176.003C282.541 178.231 284.016 181.327 285.585 184.775C287.154 188.222 288.584 191.336 289.674 193.569L290.972 196.215C291.111 196.504 291.224 196.772 291.319 196.933C291.363 197.016 291.393 197.104 291.407 197.195Z" fill="#263238"/>
<path d="M320.967 188.195C320.871 188.239 320.772 188.276 320.67 188.307L319.814 188.58L316.663 189.543C313.992 190.362 310.312 191.531 306.254 192.829C302.196 194.127 298.504 195.263 295.814 196.032C294.465 196.421 293.375 196.722 292.613 196.917L291.737 197.14C291.635 197.171 291.529 197.19 291.422 197.196C291.514 197.146 291.614 197.108 291.718 197.084L292.575 196.811L295.725 195.842C298.397 195.023 302.077 193.859 306.134 192.562C310.192 191.264 313.884 190.128 316.575 189.354C317.923 188.969 319.013 188.669 319.776 188.474L320.652 188.251C320.753 188.219 320.859 188.201 320.967 188.195Z" fill="#263238"/>
<path d="M36.0609 70.6648C55.6769 70.6648 71.5789 56.6088 71.5789 39.2699C71.5789 21.931 55.6769 7.875 36.0609 7.875C16.4449 7.875 0.542969 21.931 0.542969 39.2699C0.542969 56.6088 16.4449 70.6648 36.0609 70.6648Z" fill="#FAFAFA"/>
<path d="M36.0535 71.1351C28.9228 71.1351 21.9523 69.266 16.0233 65.7643C10.0943 62.2625 5.47324 57.2854 2.74443 51.4622C0.0156227 45.6391 -0.698359 39.2314 0.692774 33.0496C2.08391 26.8677 5.51768 21.1893 10.5599 16.7325C15.602 12.2756 22.0261 9.24044 29.0198 8.01079C36.0135 6.78115 43.2627 7.41225 49.8506 9.82428C56.4386 12.2363 62.0693 16.321 66.031 21.5617C69.9926 26.8024 72.1071 32.9638 72.1071 39.2668C72.0954 47.7156 68.2932 55.8154 61.5343 61.7897C54.7755 67.7639 45.612 71.1247 36.0535 71.1351ZM36.0535 8.34526C29.1332 8.34526 22.3682 10.1592 16.6142 13.5578C10.8602 16.9563 6.37564 21.7868 3.72762 27.4383C1.07959 33.0898 0.387067 39.3085 1.73762 45.3079C3.08818 51.3074 6.42116 56.818 11.315 61.143C16.2089 65.468 22.4439 68.4131 29.2315 69.6058C36.019 70.7985 43.0543 70.1853 49.4475 67.8436C55.8407 65.502 61.3048 61.5371 65.1486 56.4504C68.9925 51.3638 71.0435 45.3838 71.0422 39.2668C71.0322 31.0676 67.3425 23.2069 60.7828 17.4098C54.2232 11.6126 45.3295 8.35263 36.0535 8.34526Z" fill="#263238"/>
<path d="M36.4368 17.4681C36.2992 16.4705 36.2529 15.4648 36.2982 14.4606C36.2526 13.4565 36.299 12.4507 36.4368 11.4531C36.5747 12.4507 36.6211 13.4565 36.5755 14.4606C36.6208 15.4648 36.5744 16.4705 36.4368 17.4681Z" fill="#263238"/>
<path d="M18.0715 23.3985C17.2566 22.8327 16.5016 22.2027 15.8158 21.5161C15.0643 20.8855 14.377 20.1979 13.7617 19.4609C14.5766 20.0267 15.3316 20.6568 16.0174 21.3434C16.7689 21.9739 17.4563 22.6616 18.0715 23.3985Z" fill="#263238"/>
<path d="M13.3721 39.9265C11.9525 40.0482 10.5256 40.0891 9.10011 40.049C7.67461 40.0891 6.24768 40.0482 4.82812 39.9265C6.24768 39.8048 7.67461 39.7638 9.10011 39.804C10.5256 39.7638 11.9525 39.8048 13.3721 39.9265Z" fill="#263238"/>
<path d="M17.9887 55.3359C17.4441 56.0019 16.8394 56.6277 16.1803 57.2073C15.5879 57.8446 14.9109 58.4168 14.1641 58.9115C14.7144 58.248 15.321 57.6224 15.9787 57.0402C16.5679 56.402 17.2428 55.8297 17.9887 55.3359Z" fill="#263238"/>
<path d="M58.3198 58.5919C63.5021 53.9806 66.6963 47.9121 67.3489 41.438C68.4579 29.7422 62.6863 23.6158 58.4143 19.5L54.7031 22.6412C58.4836 26.2223 64.3434 33.34 62.7556 41.7833C61.7654 47.0363 59.1035 51.9315 55.0812 55.8963L58.3198 58.5919Z" fill="url(#paint1_linear_2804_15531)"/>
<path d="M35.1903 43.2901C34.3831 43.1494 33.6412 42.8003 33.0585 42.2869C32.4759 41.7735 32.0786 41.1188 31.917 40.4057C31.7553 39.6927 31.8366 38.9533 32.1506 38.2811C32.4645 37.6089 32.9969 37.0341 33.6806 36.6294C34.3642 36.2248 35.1682 36.0084 35.9909 36.0078C36.8137 36.0072 37.6181 36.2223 38.3025 36.6259C38.9869 37.0295 39.5205 37.6035 39.8357 38.2752C40.1509 38.9469 40.2337 39.6862 40.0734 40.3995C39.968 40.8729 39.7579 41.3233 39.4553 41.7249C39.1527 42.1264 38.7635 42.4713 38.3099 42.7398C37.8564 43.0083 37.3474 43.195 36.8121 43.2895C36.2768 43.3839 35.7257 43.3841 35.1903 43.2901Z" fill="#263238"/>
<path d="M50.7912 48.3631L26.6841 32.0391L24.3906 35.1301L50.7912 48.3631Z" fill="#263238"/>
<path d="M67.4695 39.0057C67.4695 39.0057 67.4695 38.8553 67.4695 38.5546C67.4695 38.2538 67.4695 37.8139 67.4002 37.2346C67.0981 33.276 65.8395 29.4206 63.7092 25.9284C61.5788 22.4361 58.6263 19.3881 55.0505 16.9897C51.169 14.3841 46.6535 12.6145 41.8628 11.8213C39.2047 11.3842 36.4938 11.2531 33.7977 11.4315C32.3875 11.5246 30.9856 11.6995 29.6013 11.955C28.1821 12.2241 26.7844 12.5758 25.4175 13.0076C19.3827 14.9505 14.1701 18.4873 10.4868 23.1381C6.80347 27.7889 4.82782 33.3286 4.82782 39.0057C4.82782 44.6828 6.80347 50.2226 10.4868 54.8734C14.1701 59.5242 19.3827 63.0609 25.4175 65.0038C26.7852 65.4349 28.1827 65.7884 29.6013 66.062C33.6428 66.8054 37.8089 66.8489 41.8691 66.1901C46.6574 65.3956 51.1704 63.626 55.0505 61.0217C58.6251 58.6224 61.5768 55.5741 63.707 52.082C65.8372 48.59 67.0965 44.7351 67.4002 40.7768C67.4569 40.2199 67.4443 39.752 67.4695 39.4568C67.4947 39.1617 67.4695 39.0057 67.4695 39.0057C67.4695 39.0057 67.4695 39.6184 67.4254 40.7768C67.32 42.4675 67.0352 44.1457 66.5748 45.7893C65.8506 48.4045 64.6957 50.9116 63.1471 53.2301C61.0745 56.2962 58.3584 58.9842 55.145 61.1498C51.2443 63.7812 46.7028 65.5719 41.8817 66.3795C39.2037 66.8259 36.4712 66.9607 33.7536 66.7805C32.3321 66.6971 30.9192 66.524 29.5257 66.2625C28.095 65.9949 26.6867 65.6413 25.3104 65.2043C19.2197 63.2516 13.957 59.6883 10.2378 54.9989C6.51864 50.3095 4.52344 44.7215 4.52344 38.9946C4.52344 33.2677 6.51864 27.6797 10.2378 22.9903C13.957 18.3009 19.2197 14.7376 25.3104 12.7848C26.6867 12.3478 28.095 11.9943 29.5257 11.7266C30.9202 11.4702 32.3327 11.2972 33.7536 11.2087C36.4714 11.0302 39.204 11.1669 41.8817 11.6152C44.3836 12.0226 46.8179 12.7055 49.1277 13.6481C51.2642 14.5063 53.283 15.5769 55.145 16.8394C58.3609 19.0115 61.077 21.7073 63.1471 24.7814C64.6897 27.0907 65.8443 29.5859 66.5748 32.1887C67.0348 33.8324 67.3196 35.5106 67.4254 37.2012C67.4947 38.3931 67.4695 39.0057 67.4695 39.0057Z" fill="#263238"/>
<path d="M67.4839 38.8249C66.3725 38.95 65.2511 38.991 64.1318 38.9475C63.0104 38.9909 61.8869 38.9499 60.7734 38.8249C61.8872 38.7033 63.0104 38.6624 64.1318 38.7024C65.2511 38.6623 66.3722 38.7032 67.4839 38.8249Z" fill="#263238"/>
<path d="M58.3264 58.5908C57.3818 57.9632 56.4967 57.2684 55.68 56.5134C54.7977 55.8174 53.9762 55.0634 53.2227 54.2578C54.1673 54.8855 55.0523 55.5802 55.869 56.3352C56.7531 57.0296 57.5747 57.7837 58.3264 58.5908Z" fill="#263238"/>
<path d="M58.416 19.5C58.5043 19.5724 57.4709 20.5081 56.1414 21.583C55.3639 22.2631 54.5206 22.8818 53.6211 23.432C54.3342 22.6994 55.1139 22.0195 55.9524 21.3992C56.6203 20.8422 57.2126 20.38 57.6788 20.0402C57.9134 19.8486 58.1595 19.6683 58.416 19.5Z" fill="#263238"/>
<path d="M52.8018 49.4531C52.273 49.9452 51.6059 50.3044 50.8687 50.4942C50.1315 50.684 49.3505 50.6976 48.6055 50.5336C49.3414 50.4946 50.0725 50.4033 50.7919 50.2607C51.4848 50.0385 52.1569 49.7685 52.8018 49.4531Z" fill="#263238"/>
<path d="M53.8898 50.3125C53.6816 50.5555 53.4175 50.7567 53.1148 50.9029C52.417 51.298 51.6375 51.5668 50.8213 51.6937C50.0042 51.8185 49.1674 51.8015 48.3577 51.6436C48.0181 51.597 47.6938 51.4869 47.4062 51.3206C48.5049 51.5789 49.6541 51.6226 50.7738 51.4485C51.8935 51.2744 52.9568 50.8867 53.8898 50.3125Z" fill="#263238"/>
<path d="M28.2701 29.79C27.5477 29.6675 26.8129 29.6115 26.0774 29.623C25.3481 29.7177 24.6322 29.8801 23.9414 30.1075C24.5286 29.659 25.2762 29.4085 26.0522 29.4002C26.8203 29.2977 27.6048 29.4356 28.2701 29.79Z" fill="#263238"/>
<path d="M28.7508 28.9705C27.7117 28.8062 26.6548 28.7464 25.6004 28.7923C24.5571 28.9237 23.5341 29.1591 22.5508 29.4941C23.4366 28.9308 24.4857 28.6023 25.5752 28.5473C26.6578 28.4149 27.7605 28.5619 28.7508 28.9705Z" fill="#263238"/>
<path d="M79.6749 219.622L80.7019 213.952L69.2155 212.281L67.5898 220.747L68.2892 220.892C71.4397 221.521 84.3312 223.71 86.5617 223.426C89.0506 223.092 79.6749 219.622 79.6749 219.622Z" fill="#FF725E"/>
<path d="M86.9278 222.924C86.9278 223.019 82.5991 222.49 77.2937 221.738C71.9884 220.986 67.7038 220.301 67.7227 220.206C67.7416 220.112 72.0514 220.641 77.3567 221.393C82.6621 222.144 86.9467 222.829 86.9278 222.924Z" fill="#263238"/>
<path d="M79.6675 220.81C79.5793 220.754 79.7116 220.464 80.0141 220.202C80.3165 219.941 80.6441 219.829 80.7071 219.907C80.7702 219.985 80.5685 220.214 80.2913 220.464C80.0141 220.715 79.7557 220.871 79.6675 220.81Z" fill="#263238"/>
<path d="M80.3319 221.284C80.2374 221.234 80.3319 220.905 80.6407 220.588C80.9494 220.27 81.2708 220.092 81.3401 220.164C81.4094 220.237 81.2204 220.504 80.9494 220.805C80.6785 221.106 80.4327 221.334 80.3319 221.284Z" fill="#263238"/>
<path d="M71.1923 220.657C71.1418 220.657 70.9969 220.507 70.789 220.223C70.5472 219.854 70.2644 219.507 69.9447 219.187C69.6306 218.881 69.2306 218.655 68.7853 218.53C68.4451 218.441 68.2056 218.457 68.1993 218.402C68.193 218.346 68.4262 218.251 68.8294 218.29C69.3659 218.36 69.8583 218.592 70.2219 218.948C70.5692 219.289 70.8426 219.683 71.0284 220.112C71.1859 220.435 71.2364 220.641 71.1923 220.657Z" fill="#263238"/>
<path d="M79.8946 219.75C79.9324 219.834 79.7056 220.006 79.3527 220.062C78.9999 220.118 78.7227 220.062 78.7227 219.951C78.7227 219.839 78.9747 219.778 79.2771 219.722C79.5796 219.667 79.8505 219.655 79.8946 219.75Z" fill="#263238"/>
<path d="M79.815 219.169C79.815 219.269 79.4874 219.308 79.0967 219.258C78.7061 219.208 78.4162 219.091 78.4666 218.996C78.517 218.901 78.8069 218.862 79.1786 218.913C79.5504 218.963 79.8213 219.074 79.815 219.169Z" fill="#263238"/>
<path d="M120.311 218.393L120.071 212.656L108.434 212.968L108.692 221.551H109.417C112.636 221.629 125.799 221.551 127.897 220.899C130.266 220.186 120.311 218.393 120.311 218.393Z" fill="#FF725E"/>
<path d="M128.149 220.387C128.149 220.487 123.808 220.704 118.439 220.883C113.071 221.061 108.717 221.116 108.711 221.022C108.705 220.927 113.059 220.704 118.427 220.532C123.795 220.359 128.143 220.292 128.149 220.387Z" fill="#263238"/>
<path d="M120.56 219.562C120.46 219.523 120.529 219.217 120.768 218.911C121.008 218.604 121.304 218.432 121.398 218.499C121.493 218.565 121.335 218.822 121.115 219.106C120.894 219.39 120.661 219.607 120.56 219.562Z" fill="#263238"/>
<path d="M121.319 219.92C121.218 219.892 121.256 219.547 121.47 219.185C121.684 218.823 121.974 218.595 122.062 218.628C122.151 218.662 122.018 218.979 121.823 219.319C121.628 219.659 121.426 219.954 121.319 219.92Z" fill="#263238"/>
<path d="M112.213 220.871C112.169 220.871 111.992 220.754 111.728 220.509C111.405 220.191 111.051 219.901 110.669 219.64C110.299 219.398 109.865 219.245 109.409 219.195C109.056 219.195 108.823 219.222 108.779 219.195C108.735 219.167 108.968 219.005 109.409 218.972C109.951 218.946 110.487 219.09 110.921 219.378C111.336 219.653 111.691 219.993 111.967 220.381C112.156 220.643 112.257 220.843 112.213 220.871Z" fill="#263238"/>
<path d="M120.549 218.486C120.612 218.564 120.423 218.77 120.095 218.887C119.767 219.004 119.465 218.976 119.465 218.887C119.465 218.798 119.673 218.67 119.963 218.564C120.252 218.458 120.486 218.402 120.549 218.486Z" fill="#263238"/>
<path d="M120.346 217.936C120.346 218.031 120.049 218.126 119.659 218.143C119.268 218.159 118.953 218.098 118.953 217.998C118.953 217.897 119.262 217.808 119.64 217.792C120.018 217.775 120.327 217.842 120.346 217.936Z" fill="#263238"/>
<path d="M136.088 75.59L135.457 73.7186C135.233 72.6388 134.889 71.5811 134.43 70.5608C134.212 70.0462 133.897 69.5679 133.498 69.1461C133.029 68.6064 132.48 68.1249 131.866 67.7148C131.236 67.3862 131.393 66.6009 132.023 66.5396C132.654 66.4784 134.348 67.3528 135.646 69.018C136.944 70.6833 137.184 67.5477 137.297 66.406C137.411 65.2642 137.927 61.7499 138.362 61.516C138.992 61.1651 139.534 61.6998 139.395 62.836C139.257 63.9721 139.099 67.414 139.78 67.453C140.46 67.492 140.933 61.672 140.933 61.672C140.933 61.672 140.807 60.4077 141.601 60.43C143.025 60.469 141.998 66.6121 141.884 67.1913C141.809 67.5978 142.546 67.6591 142.609 67.2247C142.672 66.7903 142.93 61.4046 144.379 61.4325C145.495 61.4325 143.592 66.4895 144.235 67.648C144.877 68.8064 145.236 63.6825 146.301 63.7494C146.692 63.7494 146.988 63.8329 146.301 66.7346C145.614 69.6362 142.225 77.4502 142.225 77.4502L136.037 75.4953" fill="#FFBE9D"/>
<path d="M93.5174 74.051L103.989 74.7361C104.128 73.6668 104.336 69.5064 104.336 69.5064C104.336 69.5064 108.709 69.1444 109.024 65.3182C109.339 61.492 109.213 52.6644 109.213 52.6644C106.816 51.5949 104.14 51.1105 101.46 51.2613C98.7805 51.4121 96.1951 52.1926 93.9711 53.5221L93.2969 53.9231L93.5174 74.051Z" fill="#FFBE9D"/>
<path d="M107.753 59.1913C107.636 59.085 107.572 58.9419 107.574 58.7936C107.577 58.6453 107.646 58.5039 107.766 58.4005C107.886 58.2971 108.048 58.2402 108.216 58.2422C108.384 58.2443 108.544 58.3053 108.661 58.4116C108.719 58.4643 108.764 58.5265 108.795 58.5947C108.826 58.663 108.841 58.7359 108.84 58.8093C108.838 58.8828 108.821 58.9553 108.788 59.0228C108.755 59.0902 108.708 59.1513 108.648 59.2025C108.588 59.2537 108.518 59.294 108.441 59.3211C108.364 59.3483 108.281 59.3617 108.198 59.3607C108.115 59.3597 108.033 59.3442 107.957 59.3151C107.88 59.286 107.811 59.244 107.753 59.1913Z" fill="#263238"/>
<path d="M108.868 58.364C108.792 58.4253 108.389 58.1134 107.79 58.08C107.192 58.0466 106.745 58.2916 106.682 58.2192C106.619 58.1468 106.732 58.0744 106.927 57.9575C107.193 57.807 107.508 57.7385 107.822 57.7625C108.135 57.7808 108.434 57.8883 108.673 58.0688C108.843 58.2248 108.899 58.364 108.868 58.364Z" fill="#263238"/>
<path d="M101.962 58.4604C102.099 58.5453 102.192 58.6749 102.221 58.8206C102.25 58.9663 102.212 59.1162 102.116 59.2373C102.02 59.3585 101.874 59.4409 101.709 59.4665C101.544 59.4921 101.374 59.4587 101.237 59.3738C101.169 59.3316 101.111 59.2779 101.067 59.2157C101.022 59.1536 100.992 59.0843 100.978 59.0118C100.964 58.9393 100.966 58.8651 100.985 58.7934C101.003 58.7217 101.038 58.6539 101.086 58.5941C101.182 58.474 101.329 58.3925 101.493 58.3675C101.657 58.3425 101.826 58.3759 101.962 58.4604Z" fill="#263238"/>
<path d="M102.35 58.4893C102.281 58.5506 101.878 58.2387 101.279 58.2053C100.681 58.1719 100.233 58.4169 100.17 58.3445C100.107 58.2721 100.214 58.1997 100.416 58.0828C100.679 57.9315 100.992 57.8629 101.305 57.8878C101.618 57.9049 101.917 58.0125 102.155 58.1941C102.332 58.3668 102.388 58.4615 102.35 58.4893Z" fill="#263238"/>
<path d="M104.446 62.9608C104.761 62.8734 105.091 62.832 105.422 62.8383C105.58 62.8383 105.706 62.8049 105.725 62.7325C105.74 62.5929 105.711 62.4523 105.643 62.3259C105.51 61.9694 105.384 61.6074 105.246 61.212C104.861 60.2827 104.583 59.3219 104.414 58.3438C104.898 59.2366 105.283 60.1693 105.561 61.1285C105.687 61.5072 105.807 61.8748 105.933 62.2424C106.014 62.4191 106.029 62.6142 105.977 62.7993C105.95 62.8505 105.911 62.8958 105.862 62.9315C105.813 62.9672 105.755 62.9925 105.693 63.0054C105.605 63.0157 105.516 63.0157 105.429 63.0054C105.1 63.0361 104.769 63.0211 104.446 62.9608Z" fill="#263238"/>
<path d="M102.466 63.4404C101.868 63.0784 104.124 64.3371 105.34 64.3482C105.118 64.6139 104.801 64.8053 104.441 64.8913C104.08 64.9773 103.697 64.9527 103.355 64.8216C102.088 64.3315 102.466 63.4404 102.466 63.4404Z" fill="white"/>
<path d="M104.342 69.4531C102.341 69.3753 100.411 68.7744 98.7969 67.7266C98.7969 67.7266 99.9373 70.5558 104.285 70.4444L104.342 69.4531Z" fill="#EB996E"/>
<path d="M93.3924 57.8103L93.9154 60.5561L95.8434 60.5226L95.7174 54.8028C95.7174 54.8028 103.367 55.3264 104.242 52.6196C104.242 52.6196 106.492 55.6104 109.283 55.5993C109.283 55.5993 111.728 55.3765 109.403 52.3634C105.811 47.7297 93.0206 51.4556 93.0206 51.4556C92.6981 52.3021 92.5425 53.1913 92.5607 54.0844C92.5103 57.0473 93.3924 57.8103 93.3924 57.8103Z" fill="#263238"/>
<path d="M92.3398 55.0225L109.352 52.0373C109.352 52.0373 108.142 46.0112 98.9494 47.7655C90.0274 49.4865 92.3398 55.0225 92.3398 55.0225Z" fill="#FF725E"/>
<path d="M92.3398 55.0202C92.5793 54.9812 113.17 55.41 114.639 52.8927C115.338 51.6897 109.245 51.6562 109.245 51.6562L109.384 52.035L92.3398 55.0202Z" fill="#FF725E"/>
<path opacity="0.2" d="M92.3398 55.0202C92.5793 54.9812 113.17 55.41 114.639 52.8927C115.338 51.6897 109.245 51.6562 109.245 51.6562L109.384 52.035L92.3398 55.0202Z" fill="black"/>
<path d="M94.1285 57.3243C94.034 57.2909 90.9151 56.9344 91.2112 60.187C91.5074 63.4395 95.1241 62.1028 95.1241 62.0082C95.1241 61.9135 94.1285 57.3243 94.1285 57.3243Z" fill="#FFBE9D"/>
<path d="M93.8968 60.9407C93.8968 60.9407 93.8338 60.9852 93.7267 61.0409C93.5792 61.1094 93.407 61.1234 93.2479 61.0799C92.9987 60.964 92.7891 60.7913 92.6407 60.5799C92.4922 60.3684 92.4104 60.1257 92.4035 59.8769C92.3668 59.5985 92.4035 59.3164 92.5107 59.0526C92.534 58.9476 92.5866 58.8494 92.6636 58.7667C92.7406 58.6841 92.8396 58.6197 92.9517 58.5792C93.0235 58.5572 93.1018 58.5579 93.173 58.5813C93.2443 58.6047 93.3042 58.6492 93.3424 58.7073C93.3991 58.7964 93.3865 58.8633 93.4054 58.8688C93.4243 58.8744 93.481 58.8076 93.4054 58.6739C93.3769 58.5946 93.3192 58.526 93.2415 58.479C93.1343 58.4204 93.0058 58.4005 92.8824 58.4233C92.7326 58.4613 92.5962 58.5324 92.486 58.6298C92.3758 58.7272 92.2954 58.8478 92.2523 58.9802C92.1243 59.2744 92.0768 59.5912 92.1137 59.9048C92.122 60.1963 92.2275 60.4792 92.4169 60.7179C92.6064 60.9567 92.8713 61.1407 93.1785 61.247C93.2799 61.2644 93.3843 61.262 93.4845 61.2398C93.5846 61.2177 93.6781 61.1764 93.7582 61.1189C93.8968 61.0242 93.9094 60.9462 93.8968 60.9407Z" fill="#EB996E"/>
<path d="M104.167 50.4021L102.082 50.4375L102.122 52.2806L104.207 52.2453L104.167 50.4021Z" fill="#263238"/>
<path d="M104.143 49.404L103.098 49.4219L103.118 50.3462L104.164 50.3283L104.143 49.404Z" fill="#263238"/>
<path d="M135.318 73.1954C135.318 73.1954 132.098 91.3072 129.83 91.4019C127.24 91.5133 119.276 81.5273 119.276 81.5273C114.178 74.5766 107.455 73.4516 105.004 73.279V72.4213L92.9571 71.5469C92.9571 71.5469 92.9571 72.4658 92.9571 73.2678H87.6203C87.6203 73.2678 78.0682 72.878 76.6316 84.2229L83.5059 89.0238L86.3223 98.2857C87.1793 101.115 85.8687 104.724 84.4321 111.062L83.5689 110.884L83.2034 117.272C83.153 117.573 83.1026 117.879 83.0585 118.185H83.153L80.242 169.196L65.3594 218.602L82.1134 219.159L97.5631 170.956C97.5631 170.956 98.9052 132.415 100.266 132.393C102.553 132.354 104.015 218.129 104.891 217.934C105.767 217.739 122.974 217.895 122.974 217.895C122.974 217.895 117.278 117.957 117.335 117.957L115.861 99.0209L115.3 93.5517C118.57 97.6174 124.751 103.967 131.355 103.855C142.11 103.671 143.622 74.1979 143.622 74.1979L135.318 73.1954Z" fill="#455A64"/>
<path d="M99.6484 132.012C100.025 131.477 100.358 130.919 100.644 130.341C101.215 128.925 101.491 127.428 101.457 125.925C101.457 124.187 101.457 122.622 101.457 121.375C101.424 120.746 101.451 120.117 101.539 119.492C101.64 120.116 101.691 120.745 101.69 121.375C101.728 122.539 101.81 124.159 101.791 125.93C101.782 126.772 101.698 127.612 101.539 128.442C101.406 129.125 101.179 129.791 100.864 130.425C100.647 130.849 100.376 131.251 100.058 131.622C99.806 131.884 99.6925 132.029 99.6484 132.012Z" fill="#263238"/>
<path d="M89.7633 123.914C89.8247 124.083 89.8545 124.26 89.8515 124.438C89.883 124.777 89.9208 125.262 89.9397 125.874C90.0365 127.478 89.6747 129.078 88.8874 130.525C88.4224 131.323 87.7323 132.003 86.8838 132.497C86.1834 132.887 85.3799 133.11 84.5524 133.143C83.9968 133.168 83.4417 133.084 82.9268 132.898C82.7341 132.838 82.5579 132.743 82.4102 132.619C83.0838 132.866 83.8115 132.977 84.5398 132.942C85.3179 132.878 86.0664 132.647 86.7199 132.268C87.5168 131.789 88.1663 131.142 88.6102 130.386C89.3679 128.978 89.7474 127.434 89.7191 125.874C89.6956 125.221 89.7104 124.566 89.7633 123.914Z" fill="#263238"/>
<path d="M118.525 132.791C118.525 132.791 118.424 132.953 118.116 133.137C117.664 133.382 117.139 133.502 116.61 133.482C115.82 133.453 115.061 133.203 114.442 132.769C113.698 132.256 113.059 131.635 112.552 130.931C111.6 129.676 111.002 128.238 110.807 126.737C110.751 126.284 110.736 125.828 110.763 125.373C110.759 125.206 110.789 125.04 110.851 124.883C110.907 124.883 110.851 125.59 111.04 126.71C111.293 128.162 111.901 129.547 112.823 130.77C113.311 131.447 113.919 132.051 114.625 132.557C115.19 132.971 115.885 133.222 116.616 133.276C117.11 133.311 117.606 133.228 118.053 133.036C118.361 132.897 118.506 132.769 118.525 132.791Z" fill="#263238"/>
<path d="M82.8807 215.876C82.8807 215.959 79.1632 215.903 74.5888 215.759C70.0144 215.614 66.2969 215.419 66.2969 215.346C66.2969 215.274 70.0144 215.319 74.5951 215.469C79.1758 215.619 82.887 215.798 82.8807 215.876Z" fill="#263238"/>
<path d="M122.377 213.651C122.149 213.706 121.914 213.734 121.678 213.734L119.788 213.862C118.175 213.951 115.95 214.057 113.487 214.157C111.023 214.258 108.793 214.33 107.186 214.375L105.296 214.402C105.06 214.419 104.823 214.41 104.59 214.375C104.819 214.323 105.053 214.295 105.289 214.291L107.18 214.169C108.793 214.074 111.017 213.968 113.48 213.868C115.944 213.768 118.175 213.695 119.781 213.656L121.671 213.623C121.907 213.61 122.144 213.619 122.377 213.651Z" fill="#263238"/>
<path d="M91.4628 133.188C91.4725 133.26 91.4725 133.333 91.4628 133.405V134.045C91.4628 134.602 91.4313 135.449 91.4124 136.507C91.3556 138.64 91.2485 141.731 91.0721 145.552C90.8957 149.372 90.6562 153.906 90.316 158.957C90.1459 161.48 89.9569 164.126 89.6859 166.866C89.5536 168.236 89.4339 169.651 89.1629 171.043C88.892 172.435 88.5329 173.856 88.2052 175.287C85.332 186.676 82.106 196.846 79.5856 204.159C78.3255 207.818 77.1913 210.742 76.3974 212.764L75.4334 215.069C75.32 215.32 75.238 215.52 75.1687 215.665C75.1478 215.736 75.116 215.803 75.0742 215.866C75.0853 215.795 75.1065 215.726 75.1372 215.66C75.1939 215.509 75.2695 215.309 75.3704 215.053L76.2777 212.725C77.0338 210.697 78.1679 207.762 79.3651 204.103C81.8224 196.779 85.0359 186.598 87.8839 175.22C88.2304 173.8 88.577 172.391 88.8416 170.998C89.1062 169.606 89.2323 168.214 89.3646 166.844C89.6229 164.103 89.8182 161.458 89.9947 158.941C90.3475 153.928 90.6247 149.356 90.8201 145.541C91.0154 141.725 91.1603 138.651 91.2674 136.501C91.3115 135.443 91.3493 134.619 91.3746 134.04C91.3746 133.772 91.3872 133.561 91.4124 133.405C91.4249 133.332 91.4417 133.259 91.4628 133.188Z" fill="#263238"/>
<path d="M114.59 214.026C114.57 213.96 114.559 213.893 114.558 213.825C114.558 213.68 114.558 213.485 114.508 213.235C114.464 212.678 114.407 211.937 114.331 210.962C114.199 208.974 114.01 206.122 113.771 202.608C113.323 195.552 112.762 185.794 112.246 175.023C111.729 164.251 111.351 154.477 111.105 147.415C110.998 143.895 110.904 141.038 110.847 139.061C110.847 138.086 110.803 137.323 110.79 136.789V136.193C110.783 136.126 110.783 136.059 110.79 135.992C110.797 136.059 110.797 136.126 110.79 136.193C110.79 136.343 110.79 136.538 110.828 136.783C110.828 137.34 110.891 138.086 110.942 139.061C111.03 141.049 111.149 143.906 111.307 147.415C111.622 154.488 112.063 164.24 112.567 175.012C113.071 185.783 113.607 195.541 113.997 202.603C114.193 206.122 114.344 208.974 114.457 210.957C114.501 211.931 114.539 212.694 114.564 213.235C114.564 213.48 114.564 213.675 114.564 213.825C114.58 213.891 114.588 213.958 114.59 214.026Z" fill="#263238"/>
<path d="M100.752 72.1094C100.8 72.6079 100.8 73.109 100.752 73.6076C100.735 74.8578 100.596 76.1044 100.336 77.3335L100.299 77.5173L100.11 77.4282C99.7063 77.2444 99.2904 77.0495 98.8809 76.8323C97.1292 75.93 95.6422 74.9888 94.5396 74.3427C93.4369 73.6967 92.7627 73.3012 92.7816 73.2678C93.4456 73.5095 94.0791 73.8119 94.6719 74.1701C95.8061 74.7771 97.3183 75.6905 99.051 76.5816C99.4605 76.7933 99.8701 76.9938 100.261 77.1776L100.028 77.2722C100.293 76.0586 100.465 74.8305 100.544 73.5964C100.568 73.0966 100.638 72.5993 100.752 72.1094Z" fill="#263238"/>
<path d="M105.036 73.3528C104.958 73.8213 104.844 74.2846 104.696 74.7396C104.576 75.1629 104.45 75.6753 104.242 76.2378C104.136 76.5327 104.007 76.821 103.858 77.1011C103.81 77.1984 103.731 77.2815 103.631 77.3405C103.563 77.3814 103.48 77.3994 103.398 77.3912C103.316 77.3831 103.24 77.3493 103.184 77.296C103.061 77.1466 102.965 76.9813 102.9 76.8059C102.314 75.5695 101.797 74.45 101.445 73.6313C101.228 73.2003 101.063 72.7504 100.953 72.2891C101.245 72.6895 101.489 73.1149 101.684 73.5589C102.094 74.3609 102.642 75.4692 103.228 76.7056C103.284 76.8443 103.354 76.9784 103.436 77.1066C103.467 77.1066 103.436 77.1066 103.486 77.1066C103.532 77.0738 103.569 77.0318 103.593 76.9841C103.741 76.7142 103.871 76.4372 103.984 76.1543C104.198 75.5973 104.349 75.1128 104.494 74.6895C104.607 74.2247 104.789 73.7752 105.036 73.3528Z" fill="#263238"/>
<path d="M102.775 111.41C102.741 111.278 102.724 111.144 102.724 111.009C102.724 110.719 102.674 110.34 102.636 109.867C102.579 108.842 102.491 107.411 102.39 105.656C102.207 102.075 101.962 97.1797 101.685 91.7718C101.407 86.3639 101.237 81.4683 101.054 77.8816C100.991 76.1273 100.947 74.7015 100.909 73.6711C100.909 73.1977 100.909 72.819 100.909 72.5572C100.9 72.4237 100.9 72.2898 100.909 72.1562C100.945 72.2859 100.964 72.4184 100.966 72.5517C100.966 72.8413 101.017 73.22 101.048 73.6934C101.111 74.7238 101.193 76.1495 101.3 77.9039C101.483 81.4851 101.729 86.3806 102 91.7885C102.27 97.1964 102.453 102.098 102.63 105.679C102.693 107.433 102.743 108.864 102.781 109.889C102.781 110.363 102.781 110.747 102.781 111.036C102.794 111.161 102.792 111.286 102.775 111.41Z" fill="#263238"/>
<path d="M110.453 83.643L104.664 83.7422L104.687 84.8002L110.477 84.701L110.453 83.643Z" fill="white"/>
<path d="M115.955 100.935C115.86 100.935 115.495 97.0696 115.136 92.2855C114.777 87.5013 114.556 83.6306 114.644 83.625C114.733 83.6194 115.098 87.4902 115.464 92.2688C115.829 97.0473 116.075 100.929 115.955 100.935Z" fill="#263238"/>
<path d="M143.432 77.9073C141.965 77.7583 140.512 77.5144 139.084 77.1777C137.635 76.931 136.207 76.5923 134.812 76.1641C136.28 76.3131 137.733 76.5569 139.16 76.8937C140.611 77.1372 142.039 77.476 143.432 77.9073Z" fill="#263238"/>
<path d="M136.572 74.4845C136.689 74.4823 136.805 74.511 136.904 74.5669C137.003 74.6228 137.081 74.7035 137.127 74.7986C137.174 74.8937 137.188 74.999 137.167 75.1011C137.146 75.2032 137.092 75.2976 137.01 75.3721C136.928 75.4467 136.823 75.4981 136.709 75.5198C136.594 75.5415 136.474 75.5326 136.365 75.4942C136.256 75.4558 136.163 75.3896 136.096 75.304C136.03 75.2184 135.994 75.1174 135.992 75.0136C135.991 74.9451 136.004 74.877 136.033 74.8132C136.061 74.7495 136.103 74.6913 136.157 74.6421C136.211 74.5929 136.276 74.5536 136.347 74.5266C136.418 74.4995 136.495 74.4852 136.572 74.4845Z" fill="#263238"/>
<path d="M110.394 81.2849L108.309 81.3203L108.349 83.1635L110.434 83.1281L110.394 81.2849Z" fill="#FF725E"/>
<path d="M110.366 80.279L109.32 80.2969L109.341 81.2212L110.386 81.2033L110.366 80.279Z" fill="#FF725E"/>
<path d="M141.613 90.7365L140.756 120.477L87.9609 120.238L88.1311 90.1016L141.613 90.7365Z" fill="url(#paint2_linear_2804_15531)"/>
<path d="M110.252 120.299C110.164 120.299 110.252 113.655 110.516 105.468C110.781 97.2806 111.033 90.6641 111.102 90.6641C111.172 90.6641 111.102 97.3028 110.844 105.495C110.586 113.688 110.34 120.299 110.252 120.299Z" fill="#263238"/>
<path d="M87.9609 120.232C88.0165 120.122 88.0862 120.017 88.1689 119.92L88.799 119.046L91.2626 115.877L99.4915 105.473C102.711 101.413 105.61 97.7317 107.683 95.0472C108.722 93.705 109.573 92.6134 110.115 91.8559L110.745 90.9815C110.827 90.8663 110.925 90.7598 111.035 90.6641C110.99 90.7793 110.926 90.8881 110.846 90.9871L110.253 91.8949C109.718 92.6691 108.918 93.7829 107.909 95.1363C105.887 97.8542 103.014 101.558 99.8003 105.618C96.5868 109.678 93.6317 113.332 91.4894 115.972L88.9691 119.09C88.6792 119.436 88.4398 119.714 88.2634 119.931C88.1785 120.043 88.0768 120.145 87.9609 120.232Z" fill="#263238"/>
<path d="M109.73 120.539C109.654 120.584 104.79 113.884 98.8732 105.574C92.9566 97.2647 88.2121 90.4923 88.294 90.4533C88.3759 90.4143 93.2276 97.1088 99.1504 105.418C105.073 113.728 109.805 120.5 109.73 120.539Z" fill="#263238"/>
<path d="M116.4 116.15L124.875 116.375L124.927 114.838L116.453 114.613L116.4 116.15Z" fill="#263238"/>
<path d="M116.188 114.192C117.563 114.046 118.95 113.999 120.333 114.053C121.718 114.002 123.104 114.053 124.479 114.203C123.103 114.343 121.717 114.389 120.333 114.342C118.949 114.386 117.563 114.335 116.188 114.192Z" fill="#263238"/>
<path d="M130.933 90.4954L130.605 101.98L128.79 100.682L126.402 101.885L126.736 90.4062L130.933 90.4954Z" fill="url(#paint3_linear_2804_15531)"/>
<path d="M87.0897 87.4628C87.0897 87.4628 84.5316 103.247 85.7413 104.171C92.4455 109.156 101.764 111.768 105.098 112.592C105.583 112.486 106.156 112.353 106.805 112.169C107.372 112.01 107.903 111.765 108.374 111.445C108.98 111.071 109.525 110.625 109.993 110.119C110.066 110.015 110.173 109.932 110.299 109.882C110.426 109.833 110.567 109.818 110.703 109.84C110.84 109.862 110.965 109.921 111.064 110.007C111.162 110.094 111.228 110.205 111.254 110.325C111.285 110.882 110.296 112.275 108.437 113.294C108.437 113.294 112.709 119.37 114.07 119.916C115.431 120.462 119.331 122.016 118.67 122.316C118.008 122.617 113.27 121.392 113.27 121.392L103.655 119.119C103.655 119.119 71.8416 114.714 73.965 101.815C75.263 93.9122 76.6807 86.7777 77.1911 84.9844L87.0897 87.4628Z" fill="#FFBE9D"/>
<path d="M76.6425 84.2266L73.7882 101.447C73.1581 106.755 77.1465 110.96 82.5527 113.332C90.7816 116.936 102.999 119.503 102.898 119.487C102.797 119.47 103.724 111.829 103.724 111.829C103.724 111.829 86.5978 105.273 86.0812 102.455C85.5645 99.6372 88.255 87.8578 88.255 87.8578L76.6425 84.2266Z" fill="#455A64"/>
<path d="M102.899 119.487C102.89 119.443 102.89 119.397 102.899 119.353C102.899 119.247 102.899 119.114 102.899 118.952C102.93 118.579 102.974 118.067 103.031 117.421C103.163 116.067 103.352 114.151 103.585 111.796L103.655 111.896L95.0351 108.209L92.5147 107.134C91.6767 106.738 90.8387 106.31 89.9944 105.836C89.1471 105.356 88.3348 104.83 87.5623 104.26C87.1716 103.97 86.7872 103.67 86.4155 103.347C86.2123 103.19 86.0436 103.001 85.9177 102.79C85.8549 102.68 85.8083 102.564 85.7791 102.444C85.7401 102.328 85.7106 102.209 85.6909 102.088C85.4137 100.211 85.987 98.4289 86.2769 96.7358C86.5667 95.0427 86.907 93.3941 87.2409 91.8235C87.871 88.6991 88.4129 85.8865 88.8854 83.5139C89.139 82.4621 89.2845 81.3921 89.3202 80.3171C89.3291 79.5075 89.1399 78.7058 88.7657 77.9668C88.5234 77.5025 88.181 77.0844 87.7576 76.7359C87.4614 76.4965 87.2787 76.4073 87.285 76.3906C87.4718 76.4698 87.6456 76.571 87.8017 76.6914C88.2543 77.0283 88.6214 77.4458 88.8791 77.9167C89.2884 78.6635 89.5037 79.4817 89.5092 80.3115C89.4945 81.3986 89.3638 82.482 89.1186 83.5474C88.6712 85.9255 88.1356 88.7436 87.5434 91.8737L86.5982 96.7915C86.5163 97.2147 86.4344 97.6492 86.3462 98.0836C86.258 98.518 86.1698 98.9413 86.1005 99.3812C85.9368 100.261 85.9113 101.157 86.0248 102.043C86.0403 102.153 86.0656 102.261 86.1005 102.366C86.127 102.47 86.1672 102.571 86.2202 102.667C86.3244 102.857 86.4725 103.026 86.6549 103.163C87.0141 103.48 87.3921 103.776 87.7765 104.065C88.5391 104.625 89.3386 105.143 90.1708 105.619C90.9899 106.092 91.8216 106.521 92.6471 106.911L95.1296 107.992L103.705 111.734L103.781 111.768V111.829C103.503 114.185 103.277 116.101 103.151 117.448C103.069 118.095 103.006 118.601 102.962 118.975C102.962 119.136 102.917 119.264 102.899 119.37C102.88 119.476 102.905 119.492 102.899 119.487Z" fill="#263238"/>
<path d="M101.312 110.75C101.335 111.144 101.302 111.539 101.211 111.925C101.104 112.649 100.934 113.641 100.707 114.71C100.481 115.779 100.222 116.782 100.008 117.495C99.9201 117.88 99.7783 118.254 99.5858 118.608C99.4976 118.608 99.9261 116.837 100.386 114.665C100.605 113.345 100.914 112.037 101.312 110.75Z" fill="#263238"/>
<path d="M102.902 119.491C102.801 119.491 102.702 119.478 102.606 119.452L101.755 119.269L98.655 118.556C96.0527 117.932 92.4234 117.119 88.5736 115.855C86.7446 115.265 84.9636 114.565 83.2431 113.76C81.8424 113.094 80.5026 112.333 79.2357 111.483C78.3863 110.904 77.5841 110.273 76.8351 109.594C76.5768 109.355 76.3751 109.16 76.2491 109.038C76.1766 108.973 76.115 108.9 76.0664 108.82C76.0664 108.82 76.3751 109.071 76.9296 109.528C77.7041 110.171 78.5227 110.772 79.3807 111.327C80.6494 112.159 81.9892 112.904 83.388 113.554C85.1012 114.343 86.8714 115.032 88.687 115.615C92.5432 116.868 96.1599 117.715 98.7684 118.4L101.837 119.207L102.669 119.436C102.748 119.449 102.826 119.468 102.902 119.491Z" fill="#263238"/>
<path d="M103.115 112.596C103.116 112.661 103.104 112.725 103.077 112.785C103.051 112.845 103.011 112.899 102.961 112.946C102.911 112.993 102.851 113.03 102.784 113.056C102.717 113.082 102.645 113.096 102.573 113.097C102.427 113.097 102.287 113.048 102.183 112.958C102.078 112.869 102.017 112.747 102.012 112.618C102.01 112.554 102.023 112.49 102.049 112.43C102.076 112.37 102.115 112.315 102.165 112.269C102.216 112.222 102.276 112.185 102.342 112.159C102.409 112.133 102.481 112.119 102.554 112.117C102.699 112.117 102.839 112.167 102.944 112.256C103.048 112.346 103.11 112.468 103.115 112.596Z" fill="#263238"/>
<path d="M251.595 31.6953H182.059V221.552H251.595V31.6953Z" fill="#E0E0E0"/>
<path d="M227.68 33.1484V213.063L260.948 221.557L261.055 33.1484H227.68Z" fill="#455A64"/>
<path d="M231.785 120.371C231.848 121.78 231.237 122.944 230.417 122.977C229.598 123.011 228.88 121.863 228.817 120.476C228.754 119.09 229.365 117.903 230.184 117.876C231.003 117.848 231.722 118.962 231.785 120.371Z" fill="white"/>
<path d="M230.246 119.32L236.799 120.094C236.969 120.114 237.126 120.187 237.241 120.299C237.356 120.411 237.423 120.556 237.429 120.707C237.434 120.803 237.414 120.898 237.371 120.986C237.328 121.074 237.264 121.153 237.182 121.216C237.1 121.279 237.004 121.325 236.899 121.351C236.795 121.376 236.685 121.381 236.578 121.364L230.278 120.423L230.246 119.32Z" fill="white"/>
<path d="M173.938 24.9844V31.1943V33.1492V221.558H184.857V33.1492H248.937V221.558H260.952V33.1492V31.1943V24.9844H173.938Z" fill="#263238"/>
<path d="M184.855 33.1484H179.398V221.551H184.855V33.1484Z" fill="#263238"/>
<path opacity="0.5" d="M184.855 33.1484H179.398V221.551H184.855V33.1484Z" fill="black"/>
<path d="M261.058 24.9844H255.602V221.558H261.058V24.9844Z" fill="#263238"/>
<path opacity="0.5" d="M261.058 24.9844H255.602V221.558H261.058V24.9844Z" fill="black"/>
<path d="M224.928 13.5078H206.996V17.0444H224.928V13.5078Z" fill="#455A64"/>
<path d="M218.027 62.7109C218.131 64.4249 218.854 66.0642 220.09 67.3876C221.326 68.7111 223.011 69.6488 224.895 70.0626C226.842 70.4803 229.085 70.2854 230.629 71.4382C233.275 73.4265 231.725 77.5646 233.515 80.199C234.611 81.8364 236.791 82.6384 238.026 84.1922C240.08 86.7709 238.7 90.6751 235.903 92.5965C233.105 94.518 229.369 94.8856 225.866 94.8243C218.147 94.6461 210.239 92.4796 204.663 87.6453C202.042 85.373 193.542 76.7348 197.405 64.2871" fill="#263238"/>
<path d="M190.154 81.0181C190.154 81.0181 176.651 91.3939 176.292 90.1297C174.402 83.2625 174.931 74.4907 175.24 71.1323C175.448 70.8483 175.693 70.5308 175.983 70.1799C176.313 69.7735 176.72 69.421 177.187 69.1385C177.751 68.7623 178.37 68.4551 179.027 68.2251C179.164 68.2106 179.292 68.1564 179.391 68.0711C179.49 67.9857 179.555 67.8739 179.575 67.7529C179.595 67.6318 179.57 67.5083 179.502 67.4014C179.435 67.2945 179.33 67.2101 179.203 67.1613C178.661 66.9831 176.935 67.3785 175.334 68.5592C173.734 69.74 174.389 66.933 174.603 65.9082C174.818 64.8834 175.322 61.6754 175.013 61.3747C174.566 60.9291 173.935 61.2856 173.753 62.3159C173.57 63.3463 172.745 66.4039 172.133 66.2925C171.522 66.1811 172.719 60.957 172.719 60.957C172.719 60.957 173.173 59.8709 172.474 59.7205C171.213 59.4476 170.42 65.0728 170.357 65.6074C170.312 65.9806 169.645 65.8803 169.726 65.4793C169.808 65.0783 171.043 60.2942 169.764 60.0046C168.781 59.7818 169.059 64.6217 168.176 65.5016C167.294 66.3816 168.391 61.8035 167.439 61.603C167.086 61.5362 166.809 61.5306 166.614 64.2318C166.567 66.4065 166.655 68.5819 166.878 70.748C166.04 78.1554 164.396 100.851 175.996 100.071C189.681 99.1466 192.832 89.6117 192.832 89.6117L190.154 81.0181Z" fill="#B78876"/>
<path d="M200.941 77.6422C201.136 76.6842 200.79 72.6631 200.79 72.6631C200.79 72.6631 196.751 72.212 196.581 68.5751C196.411 64.9383 196.814 56.5507 196.814 56.5507L204.243 53.3984L212.232 59.0904L210.846 77.5809L200.941 77.6422Z" fill="#B78876"/>
<path d="M197.5 62.6833C197.5 62.7733 197.53 62.8614 197.587 62.9364C197.643 63.0114 197.723 63.0699 197.818 63.1046C197.912 63.1394 198.015 63.1487 198.115 63.1315C198.215 63.1144 198.307 63.0714 198.38 63.0081C198.452 62.9448 198.502 62.8639 198.523 62.7757C198.543 62.6875 198.534 62.5959 198.496 62.5123C198.458 62.4288 198.392 62.3571 198.308 62.3062C198.224 62.2554 198.125 62.2277 198.023 62.2266C197.885 62.2266 197.753 62.2745 197.655 62.36C197.557 62.4455 197.502 62.5616 197.5 62.6833Z" fill="#263238"/>
<path d="M197.017 62.1644C197.08 62.2256 197.464 61.9416 198.018 61.9249C198.573 61.9082 198.983 62.1532 199.039 62.0864C199.096 62.0196 199.001 61.9416 198.819 61.8302C198.58 61.6805 198.292 61.6059 198 61.6186C197.709 61.6317 197.43 61.7274 197.206 61.8915C197.036 62.0196 196.985 62.1365 197.017 62.1644Z" fill="#263238"/>
<path d="M203.441 62.7692C203.441 62.8593 203.472 62.9474 203.528 63.0223C203.585 63.0973 203.665 63.1558 203.759 63.1906C203.853 63.2253 203.957 63.2347 204.057 63.2175C204.157 63.2003 204.249 63.1574 204.321 63.094C204.394 63.0307 204.443 62.9499 204.464 62.8617C204.485 62.7734 204.475 62.6818 204.437 62.5983C204.399 62.5147 204.334 62.443 204.25 62.3922C204.166 62.3413 204.066 62.3136 203.964 62.3125C203.827 62.3125 203.695 62.3604 203.597 62.4459C203.499 62.5314 203.443 62.6476 203.441 62.7692Z" fill="#263238"/>
<path d="M203.133 62.2662C203.203 62.3275 203.587 62.0434 204.141 62.0211C204.696 61.9989 205.099 62.2551 205.162 62.1882C205.225 62.1214 205.124 62.0434 204.942 61.9265C204.701 61.7805 204.414 61.708 204.122 61.72C203.831 61.7321 203.552 61.8281 203.329 61.9933C203.159 62.1158 203.102 62.2328 203.133 62.2662Z" fill="#263238"/>
<path d="M201.061 66.4658C200.77 66.385 200.466 66.3437 200.16 66.3432C200.022 66.3432 199.883 66.3098 199.858 66.2207C199.847 66.0825 199.878 65.9443 199.946 65.8197L200.343 64.7894C200.717 63.9117 201.016 63.0107 201.238 62.0938C200.793 62.9427 200.421 63.8195 200.122 64.7169C199.99 65.0845 199.858 65.4243 199.738 65.7584C199.652 65.9221 199.63 66.1061 199.675 66.282C199.694 66.3279 199.724 66.3691 199.765 66.4021C199.806 66.4351 199.855 66.4588 199.908 66.4713C199.987 66.4812 200.068 66.4812 200.148 66.4713C200.451 66.5049 200.758 66.503 201.061 66.4658Z" fill="#263238"/>
<path d="M202.876 66.9659C203.443 66.6373 201.313 67.7735 200.191 67.7568C200.383 68.0133 200.669 68.2033 201.001 68.2947C201.333 68.3861 201.69 68.3731 202.012 68.258C202.165 68.2236 202.309 68.1629 202.435 68.0792C202.561 67.9956 202.668 67.8907 202.748 67.7706C202.828 67.6505 202.881 67.5176 202.903 67.3795C202.925 67.2414 202.915 67.1009 202.876 66.9659Z" fill="white"/>
<path d="M200.789 72.6655C202.703 72.6197 204.559 72.0816 206.132 71.1172C206.132 71.1172 204.872 73.7738 200.858 73.5566L200.789 72.6655Z" fill="#A36957"/>
<path d="M218.03 62.7607C217.992 62.5046 217.948 62.1147 217.904 61.7081C217.841 61.1512 217.771 60.5497 217.689 60.2267C215.648 52.6132 208.326 51.0872 206.877 51.0649C205.314 51.0371 202.605 50.2184 198.554 53.9054C197.401 54.8832 196.602 56.1404 196.255 57.5188C195.909 58.8971 196.031 60.3353 196.607 61.6524L197.287 61.0955L203.178 59.8145C202.737 58.372 203.456 56.601 203.859 55.7767L203.897 55.7433C204.962 61.2069 211.559 61.8696 211.559 61.8696L210.929 76.3502C217.425 75.1917 217.941 65.8796 217.929 62.7273L218.03 62.7607Z" fill="#263238"/>
<path d="M220.582 127.761C220.582 127.688 220.582 127.616 220.582 127.571C220.582 127.527 220.596 127.66 220.582 127.761Z" fill="#B78876"/>
<path d="M228.231 216.05C228.231 216.05 213.02 170.732 212.731 169.267C212.466 167.958 219.51 136.162 220.531 127.914L199.146 128.092C199.146 128.092 199.146 128.142 199.146 128.232L188.812 128.482L193.986 219.041L205.327 219.303L205.157 189.534C210.765 204.07 217.859 220.495 217.859 220.495L228.231 216.05Z" fill="#B78876"/>
<path d="M198.357 167.242C198.389 167.242 198.357 167.599 198.288 168.234C198.238 169.128 198.257 170.025 198.344 170.918C198.476 172.243 198.729 173.556 199.101 174.844C199.593 176.418 200.199 177.962 200.915 179.467C202.32 182.72 203.58 185.666 204.475 187.821L205.546 190.361C205.687 190.668 205.8 190.985 205.887 191.308C205.71 191.015 205.556 190.711 205.427 190.4L204.286 187.894C203.335 185.772 202.043 182.831 200.632 179.578C200.285 178.765 199.945 177.969 199.611 177.2C199.304 176.455 199.045 175.694 198.836 174.922C198.471 173.618 198.237 172.287 198.137 170.946C198.071 170.042 198.088 169.135 198.187 168.234C198.225 167.916 198.269 167.677 198.307 167.504C198.307 167.415 198.324 167.326 198.357 167.242Z" fill="#A36957"/>
<path d="M205.215 200.347C205.215 200.074 205.416 190.255 205.416 190.255C205.416 190.255 201.686 181.155 201.592 181.428C201.497 181.701 205.215 200.347 205.215 200.347Z" fill="#A36957"/>
<path d="M218.249 220.343L228.255 216.055L229.408 217.954L225.873 219.719C223.46 220.883 215.257 224.682 213.316 224.988C211.155 225.333 218.249 220.343 218.249 220.343Z" fill="#FF725E"/>
<path d="M212.868 224.725C212.817 224.658 216.472 223.054 221.027 221.155C225.583 219.256 229.307 217.769 229.351 217.813C229.395 217.858 225.747 219.484 221.191 221.378C216.636 223.272 212.912 224.792 212.868 224.725Z" fill="#263238"/>
<path d="M226.808 218.97C226.757 218.97 226.738 218.803 226.757 218.535C226.783 218.179 226.892 217.832 227.079 217.516C227.287 217.17 227.623 216.897 228.03 216.742C228.364 216.625 228.597 216.653 228.597 216.681C228.597 216.709 228.408 216.77 228.156 216.909C227.838 217.091 227.577 217.34 227.394 217.633C227.23 217.933 227.099 218.247 227.003 218.569C226.921 218.819 226.852 218.975 226.808 218.97Z" fill="#263238"/>
<path d="M217.707 220.748C217.707 220.826 218.016 220.932 218.413 221.049C218.81 221.166 219.144 221.244 219.2 221.177C219.257 221.11 218.974 220.898 218.539 220.77C218.104 220.642 217.72 220.664 217.707 220.748Z" fill="#263238"/>
<path d="M217.02 221.222C217.02 221.306 217.284 221.456 217.65 221.562C218.015 221.668 218.381 221.701 218.425 221.623C218.469 221.545 218.173 221.4 217.795 221.289C217.416 221.178 217.045 221.144 217.02 221.222Z" fill="#263238"/>
<path d="M216.454 221.66C216.416 221.732 216.63 221.872 216.907 222C217.184 222.128 217.455 222.2 217.537 222.139C217.619 222.078 217.418 221.888 217.115 221.749C216.813 221.61 216.498 221.582 216.454 221.66Z" fill="#263238"/>
<path d="M217.753 220.819C217.808 220.506 217.771 220.186 217.646 219.889C217.547 219.546 217.371 219.224 217.129 218.942C216.974 218.766 216.792 218.61 216.587 218.48C216.469 218.404 216.34 218.342 216.203 218.296C216.027 218.235 215.831 218.235 215.655 218.296C215.581 218.33 215.516 218.377 215.466 218.435C215.415 218.494 215.379 218.561 215.361 218.633C215.343 218.704 215.343 218.779 215.361 218.85C215.379 218.922 215.415 218.99 215.466 219.048C215.604 219.227 215.76 219.395 215.932 219.549C216.219 219.807 216.531 220.041 216.865 220.251C217.159 220.47 217.496 220.64 217.86 220.752C217.898 220.719 217.551 220.49 217.041 220.1C216.744 219.874 216.462 219.632 216.197 219.376C216.048 219.235 215.913 219.082 215.794 218.92C215.68 218.775 215.712 218.597 215.825 218.558C215.938 218.519 216.172 218.558 216.361 218.697C216.542 218.806 216.706 218.937 216.846 219.087C217.082 219.341 217.267 219.63 217.394 219.939C217.483 220.241 217.603 220.536 217.753 220.819Z" fill="#263238"/>
<path d="M217.752 220.645C217.472 220.399 217.134 220.209 216.763 220.089C216.36 219.931 215.937 219.817 215.503 219.749C215.243 219.708 214.979 219.687 214.715 219.688C214.564 219.689 214.414 219.706 214.268 219.738C214.176 219.756 214.09 219.792 214.016 219.843C213.971 219.874 213.936 219.914 213.913 219.96C213.89 220.005 213.88 220.055 213.884 220.105C213.93 220.24 214.01 220.364 214.12 220.466C214.229 220.569 214.364 220.647 214.514 220.696C214.757 220.8 215.016 220.874 215.282 220.913C215.719 220.967 216.16 220.978 216.599 220.946C217.362 220.907 217.778 220.673 217.74 220.645C217.358 220.695 216.973 220.727 216.587 220.74C216.164 220.743 215.742 220.711 215.326 220.645C215.107 220.606 214.895 220.541 214.696 220.451C214.507 220.361 214.293 220.194 214.281 220.089C214.268 219.983 214.514 219.966 214.753 219.977C214.993 219.968 215.234 219.98 215.471 220.011C215.879 220.068 216.279 220.157 216.669 220.278C217.019 220.425 217.381 220.548 217.752 220.645Z" fill="#263238"/>
<path d="M218.447 220.247C218.503 220.33 220.828 219.545 223.531 218.37C226.235 217.194 228.32 216.142 228.251 216.053C228.181 215.964 225.976 216.905 223.279 218.074C220.583 219.244 218.384 220.163 218.447 220.247Z" fill="#263238"/>
<path d="M195.284 218.945L205.321 219.012L205.151 221.58H204.521C201.61 221.58 189.708 221.39 187.798 220.85C185.644 220.26 195.284 218.945 195.284 218.945Z" fill="#FF725E"/>
<path d="M187.551 220.434C187.551 220.361 191.501 220.495 196.372 220.734C201.243 220.974 205.162 221.236 205.155 221.291C205.149 221.347 201.211 221.236 196.334 220.996C191.457 220.757 187.544 220.523 187.551 220.434Z" fill="#263238"/>
<path d="M201.969 221.136C201.931 221.108 202.026 220.963 202.227 220.746C202.501 220.449 202.834 220.2 203.21 220.011C203.627 219.807 204.103 219.716 204.578 219.749C204.943 219.788 205.132 219.905 205.113 219.933C205.094 219.961 204.886 219.933 204.565 219.933C204.158 219.955 203.762 220.058 203.406 220.233C203.055 220.414 202.726 220.625 202.423 220.863C202.177 221.052 202.007 221.158 201.969 221.136Z" fill="#263238"/>
<path d="M194.529 219.068C194.459 219.129 194.674 219.358 194.945 219.625C195.216 219.892 195.449 220.098 195.543 220.059C195.638 220.02 195.543 219.731 195.241 219.447C194.938 219.163 194.598 219.007 194.529 219.068Z" fill="#263238"/>
<path d="M193.574 219.19C193.499 219.246 193.65 219.497 193.914 219.747C194.179 219.998 194.463 220.165 194.544 220.12C194.626 220.076 194.481 219.825 194.204 219.564C193.927 219.302 193.675 219.135 193.574 219.19Z" fill="#263238"/>
<path d="M192.808 219.321C192.72 219.365 192.808 219.571 192.972 219.794C193.136 220.017 193.306 220.189 193.407 220.162C193.508 220.134 193.476 219.9 193.306 219.66C193.136 219.421 192.89 219.276 192.808 219.321Z" fill="#263238"/>
<path d="M194.519 219.145C194.77 218.909 194.956 218.625 195.061 218.315C195.207 217.991 195.274 217.644 195.256 217.296C195.245 217.083 195.192 216.874 195.099 216.678C195.047 216.565 194.977 216.46 194.891 216.366C194.767 216.24 194.593 216.16 194.406 216.143C194.318 216.136 194.23 216.145 194.147 216.17C194.064 216.195 193.988 216.235 193.923 216.287C193.858 216.34 193.807 216.403 193.772 216.474C193.736 216.546 193.718 216.622 193.719 216.7C193.718 216.906 193.741 217.111 193.788 217.312C193.859 217.648 193.969 217.977 194.116 218.293C194.222 218.603 194.405 218.888 194.651 219.128C194.6 218.822 194.507 218.523 194.374 218.237C194.268 217.921 194.188 217.599 194.135 217.273C194.103 217.089 194.09 216.903 194.097 216.717C194.097 216.549 194.242 216.416 194.374 216.427C194.506 216.438 194.664 216.583 194.746 216.767C194.834 216.943 194.888 217.131 194.903 217.324C194.934 217.642 194.899 217.963 194.803 218.27C194.674 218.552 194.579 218.845 194.519 219.145Z" fill="#263238"/>
<path d="M194.64 219.004C194.555 218.684 194.385 218.386 194.142 218.135C193.899 217.835 193.611 217.566 193.286 217.333C193.09 217.189 192.879 217.063 192.655 216.955C192.522 216.891 192.38 216.843 192.233 216.81C192.136 216.793 192.035 216.793 191.937 216.81C191.877 216.817 191.819 216.835 191.768 216.864C191.717 216.893 191.674 216.932 191.641 216.977C191.586 217.1 191.569 217.234 191.591 217.365C191.614 217.496 191.674 217.619 191.767 217.723C191.904 217.918 192.082 218.088 192.29 218.224C192.643 218.448 193.023 218.635 193.424 218.781C193.789 218.97 194.215 219.044 194.634 218.993C194.265 218.883 193.905 218.751 193.556 218.598C193.194 218.43 192.85 218.233 192.529 218.007C192.36 217.883 192.214 217.736 192.095 217.573C192.039 217.504 192.001 217.426 191.981 217.344C191.961 217.261 191.962 217.176 191.981 217.094C191.981 217.044 192.265 217.094 192.466 217.194C192.69 217.282 192.902 217.392 193.097 217.523C193.415 217.734 193.706 217.975 193.966 218.241C194.357 218.709 194.584 219.021 194.64 219.004Z" fill="#263238"/>
<path d="M195.516 218.943C197.109 219.169 198.723 219.264 200.336 219.227C201.947 219.29 203.561 219.24 205.162 219.076C203.56 218.946 201.951 218.898 200.342 218.931C197.683 218.909 195.522 218.865 195.516 218.943Z" fill="#263238"/>
<path d="M225.979 96.6534C225.979 96.6534 226.389 95.2945 225.223 86.9682C224.719 83.3425 221.928 81.0924 218.922 79.7279V79.6834L218.664 79.6165C216.199 78.5635 213.552 77.8821 210.832 77.6004L200.253 77.45C200.253 77.45 192.509 76.5979 187.576 81.3486C182.642 86.0994 179.277 88.8896 179.277 88.8896L187.16 97.2438L189.271 95.4003C189.271 95.4003 189.05 99.2488 190.487 101.493L193.895 106.795L191.684 116.135C190.285 119.694 185.673 132.71 187.481 145.603C189.718 161.571 190.077 166.238 190.077 166.238L215.621 169.323C215.621 169.323 225.828 135.517 222.331 122.089C219.931 112.86 218.097 113.289 217.505 111.29L218.147 96.9263L225.979 96.6534Z" fill="url(#paint4_linear_2804_15531)"/>
<path d="M191.295 92.2969C191.091 92.8934 190.78 93.4574 190.375 93.9677C190.07 94.5235 189.663 95.0315 189.172 95.4715C189.38 94.8761 189.69 94.3125 190.092 93.8006C190.4 93.2461 190.806 92.7385 191.295 92.2969Z" fill="#263238"/>
<path d="M214.19 109.756C213.924 109.824 213.652 109.871 213.377 109.895C212.848 109.973 212.079 110.062 211.134 110.146C208.658 110.368 206.169 110.459 203.68 110.419C201.191 110.377 198.706 110.208 196.239 109.912C195.294 109.795 194.531 109.684 194.008 109.595C193.731 109.562 193.459 109.504 193.195 109.422C193.474 109.421 193.752 109.441 194.027 109.483L196.264 109.712C198.154 109.89 200.782 110.079 203.686 110.129C206.591 110.179 209.212 110.062 211.109 109.94L213.358 109.784C213.633 109.746 213.912 109.737 214.19 109.756Z" fill="#263238"/>
<path d="M222.797 135.055C222.783 135.204 222.752 135.351 222.703 135.495C222.615 135.812 222.501 136.235 222.356 136.764C222.274 137.037 222.192 137.321 222.098 137.672C222.003 138.023 221.846 138.357 221.707 138.742C221.417 139.499 221.134 140.385 220.674 141.309L219.993 142.779C219.754 143.286 219.445 143.793 219.155 144.333C218.595 145.414 217.851 146.505 217.101 147.675C213.692 152.654 209.193 156.982 203.87 160.407C202.609 161.164 201.456 161.91 200.278 162.49C199.698 162.79 199.15 163.102 198.596 163.359L196.995 164.077C195.993 164.562 195.017 164.879 194.185 165.191C193.769 165.347 193.379 165.497 193.019 165.62L192.011 165.92L190.613 166.333C190.453 166.386 190.289 166.427 190.121 166.455C190.271 166.381 190.429 166.321 190.594 166.277L191.967 165.815L192.963 165.492C193.322 165.364 193.7 165.202 194.116 165.041C194.935 164.706 195.899 164.378 196.895 163.882L198.476 163.147C199.024 162.891 199.566 162.59 200.139 162.273C201.305 161.688 202.458 160.936 203.693 160.178C208.973 156.757 213.448 152.459 216.868 147.525C217.624 146.377 218.374 145.297 218.935 144.222C219.231 143.665 219.565 143.192 219.786 142.685C220.006 142.178 220.264 141.693 220.485 141.231C220.958 140.312 221.254 139.443 221.562 138.692C221.707 138.313 221.859 137.962 221.972 137.633C222.085 137.305 222.174 137.004 222.255 136.731L222.665 135.484C222.698 135.338 222.743 135.195 222.797 135.055Z" fill="#263238"/>
<path d="M225.579 91.7768C225.454 91.86 225.319 91.9292 225.175 91.9829C224.911 92.1054 224.545 92.2892 223.997 92.5064C222.544 93.1602 220.987 93.6146 219.379 93.8542C218.254 93.9973 217.108 93.9424 216.008 93.6927C215.39 93.5481 214.802 93.3208 214.262 93.0188C213.699 92.6883 213.196 92.2846 212.769 91.8214C211.928 90.8057 211.172 89.7373 210.507 88.6245C209.77 87.5107 208.812 86.3968 207.357 85.9735C205.901 85.5502 204.37 85.8677 202.977 86.2186C201.626 86.6368 200.22 86.9044 198.794 87.015C197.943 87.0422 197.095 86.9115 196.305 86.6313C195.515 86.3511 194.8 85.9276 194.206 85.3881C193.612 84.8487 193.153 84.2053 192.858 83.4993C192.563 82.7934 192.439 82.0406 192.493 81.2896C192.536 80.6673 192.696 80.0556 192.965 79.4795C193.178 78.9839 193.502 78.5312 193.917 78.1484C193.587 78.5805 193.308 79.0415 193.085 79.5241C192.84 80.0926 192.701 80.6927 192.676 81.3007C192.65 82.0199 192.79 82.7362 193.089 83.4056C193.387 84.075 193.837 84.6835 194.411 85.1935C194.985 85.7036 195.671 86.1046 196.427 86.3719C197.183 86.6391 197.993 86.767 198.806 86.7476C200.206 86.6305 201.584 86.3592 202.908 85.9401C203.633 85.7438 204.375 85.6003 205.126 85.5112C205.918 85.4188 206.723 85.4835 207.483 85.7006C208.237 85.9387 208.916 86.3342 209.461 86.8535C209.974 87.3505 210.425 87.8958 210.803 88.4797C211.46 89.5814 212.201 90.642 213.021 91.6543C213.803 92.5324 214.883 93.165 216.102 93.4588C217.167 93.7136 218.278 93.7798 219.372 93.6537C220.964 93.433 222.511 93.011 223.966 92.4006L225.169 91.9272C225.301 91.8687 225.438 91.8184 225.579 91.7768Z" fill="white"/>
<path d="M210.588 111.515C210.804 111.23 210.956 110.911 211.036 110.574C211.098 110.114 211.042 109.647 210.872 109.208C210.702 108.769 210.422 108.37 210.053 108.04C209.545 107.581 208.921 107.235 208.232 107.032C207.435 106.795 206.611 106.636 205.774 106.559C204.886 106.453 203.934 106.392 202.964 106.208C201.941 106.044 200.974 105.676 200.135 105.133C199.718 104.839 199.366 104.48 199.095 104.075C198.841 103.683 198.63 103.271 198.465 102.844C198.206 102.054 197.862 101.287 197.438 100.555C197.041 99.9637 196.482 99.4704 195.812 99.1201C195.143 98.7697 194.385 98.5737 193.607 98.5498C192.543 98.5326 191.503 98.8306 190.652 99.3964C190.349 99.6125 190.06 99.845 189.789 100.093C189.789 100.093 189.833 100.009 189.953 99.8642C190.141 99.66 190.352 99.4734 190.583 99.3073C191.437 98.6828 192.511 98.3419 193.62 98.3438C194.443 98.3559 195.249 98.5523 195.963 98.9147C196.677 99.277 197.276 99.7934 197.703 100.416C198.144 101.161 198.503 101.943 198.774 102.749C199.047 103.588 199.592 104.337 200.343 104.905C201.14 105.418 202.057 105.768 203.027 105.929C203.972 106.113 204.917 106.18 205.806 106.297C207.583 106.492 209.271 106.943 210.216 107.901C210.6 108.254 210.884 108.682 211.047 109.15C211.21 109.618 211.247 110.114 211.155 110.597C211.091 110.856 210.966 111.1 210.79 111.315C210.732 111.388 210.664 111.456 210.588 111.515Z" fill="white"/>
<path d="M220.476 151.07C219.635 150.996 218.786 151.028 217.955 151.164C216.983 151.341 216.022 151.562 215.076 151.827C213.816 152.199 212.503 152.409 211.175 152.451C209.556 152.479 207.949 152.199 206.462 151.632C204.736 150.994 203.253 149.931 202.19 148.569C201.055 147.026 200.571 145.178 200.823 143.35C200.947 142.388 201.278 141.456 201.8 140.605C202.342 139.723 203.102 138.962 204.024 138.377C204.919 137.787 205.914 137.263 206.362 136.444C206.588 136.041 206.663 135.585 206.576 135.141C206.475 134.692 206.306 134.257 206.072 133.849C205.54 133.045 205.181 132.162 205.013 131.243C204.916 130.344 205.067 129.438 205.454 128.603C206.197 127.066 207.586 125.846 209.329 125.2C210.821 124.638 212.436 124.381 214.055 124.448C215.364 124.508 216.677 124.474 217.98 124.348C218.958 124.226 219.889 123.906 220.702 123.412C221.223 123.101 221.654 122.687 221.963 122.203C222.164 121.869 222.208 121.674 222.233 121.68C222.194 121.874 222.122 122.062 222.019 122.237C221.733 122.741 221.314 123.176 220.797 123.507C219.976 124.029 219.029 124.374 218.031 124.515C216.719 124.66 215.395 124.709 214.074 124.659C212.489 124.606 210.911 124.866 209.455 125.422C207.788 126.058 206.465 127.24 205.763 128.72C205.396 129.515 205.255 130.377 205.353 131.231C205.52 132.12 205.87 132.973 206.387 133.749C206.637 134.179 206.815 134.638 206.916 135.113C207.02 135.615 206.936 136.133 206.677 136.589C206.141 137.514 205.12 138.043 204.245 138.622C203.381 139.178 202.66 139.889 202.13 140.709C201.6 141.529 201.273 142.439 201.17 143.378C200.929 145.132 201.388 146.904 202.468 148.391C203.495 149.714 204.926 150.753 206.595 151.387C208.047 151.946 209.617 152.229 211.201 152.217C212.51 152.195 213.808 152.007 215.057 151.66C216.011 151.405 216.981 151.198 217.961 151.042C218.585 150.944 219.22 150.918 219.852 150.964C220.063 150.982 220.272 151.017 220.476 151.07Z" fill="white"/>
<path d="M211.557 168.826C211.525 168.826 211.557 168.436 211.601 167.74C211.662 166.763 211.466 165.787 211.027 164.888C210.718 164.285 210.175 163.799 209.496 163.518C208.694 163.244 207.834 163.128 206.976 163.178C205.976 163.249 204.971 163.139 204.021 162.855C203.53 162.654 203.099 162.354 202.761 161.981C202.425 161.601 202.134 161.193 201.891 160.761C201.477 159.918 200.934 159.129 200.278 158.416C199.644 157.774 198.884 157.238 198.035 156.835C196.588 156.145 194.93 155.884 193.303 156.088C192.205 156.227 191.15 156.556 190.197 157.057C189.529 157.42 189.201 157.681 189.182 157.665C189.163 157.648 189.252 157.587 189.403 157.458C190.492 156.614 191.837 156.068 193.271 155.888C194.95 155.644 196.672 155.894 198.174 156.601C199.062 157.01 199.857 157.561 200.517 158.227C200.865 158.572 201.176 158.945 201.444 159.341C201.708 159.753 201.935 160.182 202.181 160.605C202.564 161.444 203.266 162.139 204.166 162.571C205.076 162.842 206.037 162.95 206.995 162.889C207.904 162.843 208.814 162.974 209.66 163.273C210.386 163.589 210.962 164.121 211.286 164.777C211.714 165.71 211.883 166.72 211.777 167.723C211.746 168.074 211.708 168.347 211.67 168.525C211.643 168.628 211.605 168.729 211.557 168.826Z" fill="white"/>
<path d="M196.443 122.766C196.293 123.094 196.12 123.414 195.926 123.724C195.418 124.564 195.099 125.483 194.987 126.43C194.946 127.078 195.105 127.723 195.447 128.296C195.873 128.952 196.353 129.58 196.884 130.173C197.487 130.889 197.923 131.704 198.166 132.57C198.41 133.436 198.456 134.337 198.302 135.219C198.139 136.107 197.741 136.949 197.138 137.674C196.536 138.399 195.747 138.988 194.836 139.39C194.045 139.747 193.172 139.938 192.284 139.947C191.341 139.938 190.416 139.716 189.597 139.303C188.778 138.89 188.091 138.299 187.603 137.586C187.455 137.357 187.333 137.117 187.237 136.867C187.198 136.78 187.175 136.688 187.168 136.595C187.332 136.915 187.515 137.227 187.716 137.53C188.305 138.326 189.15 138.949 190.142 139.318C190.815 139.58 191.543 139.711 192.278 139.702C193.124 139.684 193.955 139.494 194.704 139.145C195.564 138.756 196.309 138.193 196.878 137.502C197.447 136.811 197.825 136.012 197.98 135.169C198.275 133.456 197.79 131.71 196.632 130.312C196.1 129.705 195.622 129.063 195.202 128.391C194.85 127.777 194.695 127.089 194.754 126.402C194.887 125.434 195.248 124.501 195.813 123.662C196.002 123.362 196.153 123.133 196.266 122.983C196.317 122.905 196.376 122.833 196.443 122.766Z" fill="white"/>
<path d="M215.429 104.086C215.377 103.868 215.351 103.646 215.353 103.423C215.353 102.933 215.29 102.31 215.252 101.608C215.164 100.015 215.05 97.9376 214.924 95.6374C214.798 93.3372 214.71 91.1819 214.691 89.6558C214.691 88.8873 214.691 88.2691 214.691 87.8402C214.679 87.6165 214.696 87.3922 214.742 87.1719C214.798 87.3911 214.823 87.6155 214.817 87.8402C214.849 88.3247 214.88 88.9541 214.924 89.6503C215.006 91.2431 215.12 93.3205 215.252 95.6207C215.384 97.9209 215.46 100.076 215.479 101.602C215.479 102.371 215.479 102.989 215.479 103.418C215.491 103.642 215.474 103.866 215.429 104.086Z" fill="#263238"/>
<path d="M215.205 97.0251C215.205 97.0251 216.257 108.264 215.048 109.044C208.312 113.204 199.358 114.875 196.145 115.371C195.698 115.226 195.181 115.053 194.582 114.814C194.064 114.61 193.589 114.329 193.177 113.984C192.647 113.572 192.181 113.101 191.791 112.581C191.744 112.466 191.657 112.369 191.541 112.303C191.426 112.237 191.29 112.206 191.153 112.215C191.016 112.224 190.886 112.272 190.783 112.352C190.68 112.432 190.609 112.54 190.581 112.659C190.499 113.177 191.293 114.602 192.938 115.738C194.582 116.875 191.35 116.941 190.172 116.98C188.993 117.019 185.364 117.303 185.1 117.643C184.709 118.133 185.226 118.612 186.404 118.545C187.582 118.479 191.111 118.506 191.117 119.069C191.123 119.631 185.125 119.76 185.125 119.76C185.125 119.76 183.865 119.604 183.82 120.25C183.783 121.419 190.121 120.851 190.751 120.807C191.174 120.762 191.199 121.364 190.751 121.403C190.304 121.442 184.772 121.403 184.722 122.6C184.684 123.513 189.951 122.177 191.104 122.756C192.257 123.335 186.99 123.402 186.996 124.276C186.996 124.605 187.047 124.833 190.058 124.416C192.214 124.019 194.342 123.517 196.435 122.912V122.94C196.435 122.94 227.756 120.567 226.969 108.086C226.44 99.6372 226.616 101.197 226.03 96.7578" fill="#B78876"/>
<defs>
<linearGradient id="paint0_linear_2804_15531" x1="301.029" y1="148.477" x2="301.029" y2="204.335" gradientUnits="userSpaceOnUse">
<stop stop-color="#0B1035"/>
<stop offset="1" stop-color="#FF3308"/>
</linearGradient>
<linearGradient id="paint1_linear_2804_15531" x1="61.0954" y1="19.5" x2="61.0954" y2="58.5919" gradientUnits="userSpaceOnUse">
<stop stop-color="#0B1035"/>
<stop offset="1" stop-color="#FF3308"/>
</linearGradient>
<linearGradient id="paint2_linear_2804_15531" x1="114.787" y1="90.1016" x2="114.787" y2="120.477" gradientUnits="userSpaceOnUse">
<stop stop-color="#0B1035"/>
<stop offset="1" stop-color="#FF3308"/>
</linearGradient>
<linearGradient id="paint3_linear_2804_15531" x1="128.667" y1="90.4062" x2="128.667" y2="101.98" gradientUnits="userSpaceOnUse">
<stop stop-color="#0B1035"/>
<stop offset="1" stop-color="#FF3308"/>
</linearGradient>
<linearGradient id="paint4_linear_2804_15531" x1="202.663" y1="77.3906" x2="202.663" y2="169.323" gradientUnits="userSpaceOnUse">
<stop stop-color="#0B1035"/>
<stop offset="1" stop-color="#FF3308"/>
</linearGradient>
</defs>
</svg>
