<svg width="18" height="22" viewBox="0 0 18 22" fill="none" xmlns="http://www.w3.org/2000/svg">
<path fill-rule="evenodd" clip-rule="evenodd" d="M8.09738 0.514709C8.50355 0.595943 8.76696 0.991062 8.68573 1.39723L7.66515 6.50014H12.1351L13.2146 1.10306C13.2958 0.696888 13.6909 0.433475 14.0971 0.514709C14.5033 0.595943 14.7667 0.991062 14.6854 1.39723L13.6649 6.50014H17.25C17.6642 6.50014 18 6.83593 18 7.25014C18 7.66436 17.6642 8.00014 17.25 8.00014H13.3649L12.1649 14.0001H15.75C16.1642 14.0001 16.5 14.3359 16.5 14.7501C16.5 15.1644 16.1642 15.5001 15.75 15.5001H11.8649L10.7854 20.8972C10.7042 21.3034 10.3091 21.5668 9.90291 21.4856C9.49674 21.4043 9.23333 21.0092 9.31456 20.6031L10.3351 15.5001H5.86515L4.78573 20.8972C4.70449 21.3034 4.30938 21.5668 3.90321 21.4856C3.49704 21.4043 3.23362 21.0092 3.31486 20.6031L4.33544 15.5001H0.75C0.335786 15.5001 0 15.1644 0 14.7501C0 14.3359 0.335786 14.0001 0.75 14.0001H4.63544L5.83544 8.00014H2.25C1.83579 8.00014 1.5 7.66436 1.5 7.25014C1.5 6.83593 1.83579 6.50014 2.25 6.50014H6.13544L7.21486 1.10306C7.29609 0.696888 7.69121 0.433475 8.09738 0.514709ZM7.36515 8.00014L6.16515 14.0001H10.6351L11.8351 8.00014H7.36515Z" fill="#212529"/>
</svg>
